<svg width="100" height="100" viewBox="0 0 100 100" fill="none" xmlns="http://www.w3.org/2000/svg">
<rect width="100" height="100" fill="#1D1D1D"/>
<path d="M22 22.0073H47.2973C52.834 21.8947 58.3194 23.0911 63.3117 25.5C67.7792 27.652 71.5374 31.049 74.1391 35.2865C76.6697 39.7731 78 44.8425 78 50C78 55.1575 76.6697 60.2269 74.1391 64.7135C71.5374 68.951 67.7792 72.348 63.3117 74.5C58.3194 76.9089 52.834 78.1053 47.2973 77.9927H22V22.0073ZM46.6595 67.3457C51.534 67.597 56.3125 65.9192 59.9712 62.6718C63.1572 59.236 64.9287 54.7137 64.9287 50.0169C64.9287 45.32 63.1572 40.7978 59.9712 37.3619C56.3125 34.1145 51.534 32.4367 46.6595 32.688H34.9089V67.3794L46.6595 67.3457Z" fill="white"/>
</svg>
