<svg width="56" height="56" viewBox="0 0 56 56" fill="none" xmlns="http://www.w3.org/2000/svg">
<g clip-path="url(#clip0_69_2299)">
<path d="M5.35938 0H56V44.4062C55.7521 43.3854 55.3904 42.4112 54.5781 41.6981C54.2267 41.389 54.1275 41.0579 54.1275 40.6073C54.1392 29.4151 54.1392 18.2224 54.1275 7.02917C54.1275 3.59188 51.3246 1.43646 48.0025 2.31437C46.8242 2.62549 45.6488 2.94924 44.4762 3.28562C44.3426 3.33293 44.1989 3.34436 44.0594 3.31877C43.9199 3.29318 43.7896 3.23147 43.6815 3.13979C43.2195 2.78517 42.7232 2.47786 42.1998 2.2225C39.2962 0.895417 36.5123 1.20167 33.8144 2.85104C32.6302 3.58021 32.3415 4.55729 33.0327 5.7575C34.2217 7.81083 35.4122 9.86222 36.6042 11.9117C37.5419 13.5348 38.4694 15.1652 39.4187 16.784C39.9525 17.6954 40.9106 18.0542 41.8017 17.6283C44.4267 16.3727 46.251 14.4098 46.8154 11.4844C47.005 10.4985 46.9729 9.46896 47.0473 8.38833L48.5056 8.00479V35.875C48.3058 35.6942 48.1687 35.576 48.0375 35.4521C44.9969 32.566 41.9402 29.6975 38.9244 26.7838C38.4049 26.2601 37.7837 25.8484 37.0989 25.5743C36.4141 25.3001 35.6804 25.1693 34.9431 25.1898C31.0231 25.216 27.1046 25.1985 23.1846 25.1985H22.5487C22.6246 23.4237 24.2477 21.8152 26.1187 21.6052C26.3433 22.5735 26.8596 23.294 27.9402 23.3144C29.8535 23.3494 31.7683 23.3435 33.6817 23.3144C34.7127 23.3012 35.4317 22.5269 35.4652 21.4842C35.4812 20.9183 35.474 20.354 35.4652 19.7881C35.455 18.4669 34.7185 17.7348 33.3885 17.7319C31.7479 17.7319 30.1073 17.7319 28.4667 17.7319C26.9704 17.7319 26.3958 18.1942 26.091 19.6437C22.9673 20.1935 21.121 22.031 20.5494 25.1971C19.9369 25.1971 19.3375 25.1752 18.741 25.2044C18.3692 25.2233 18.1577 25.0921 17.9448 24.7829C15.1973 20.6383 12.4294 16.5069 9.69062 12.355C9.47187 12.0047 9.35287 11.6013 9.34646 11.1883C9.31146 9.16562 9.33042 7.14146 9.33042 5.11875C9.33042 2.35812 8.11271 0.777292 5.44979 0.0670833C5.41187 0.0554167 5.38708 0.021875 5.35938 0Z" fill="white"/>
<path d="M5.35938 0C5.38708 0.021875 5.41188 0.0554167 5.44396 0.0641667C8.10688 0.774375 9.32312 2.35521 9.32458 5.11583C9.32458 7.13854 9.30562 9.16271 9.34062 11.1854C9.34704 11.5984 9.46603 12.0018 9.68479 12.3521C12.4235 16.504 15.1915 20.6354 17.939 24.78C18.1446 25.0892 18.3633 25.2175 18.7352 25.2015C19.3317 25.1723 19.931 25.1942 20.5435 25.1942C21.1123 22.0281 22.9585 20.1906 26.0852 19.6408C26.39 18.1912 26.9602 17.729 28.4608 17.729C30.1015 17.729 31.7421 17.729 33.3827 17.729C34.7127 17.729 35.4492 18.4581 35.4594 19.7852C35.4594 20.351 35.471 20.9154 35.4594 21.4812C35.4317 22.524 34.7069 23.2983 33.6758 23.3115C31.7625 23.3377 29.8477 23.3435 27.9344 23.3115C26.8538 23.291 26.3375 22.5706 26.1129 21.6023C24.2419 21.8123 22.6129 23.4208 22.5429 25.1956H23.1787C27.0987 25.1956 31.0173 25.2131 34.9373 25.1869C35.6746 25.1663 36.4083 25.2972 37.0931 25.5713C37.7778 25.8455 38.3991 26.2571 38.9185 26.7808C41.9344 29.6975 44.991 32.5631 48.0317 35.4492C48.1629 35.5731 48.3 35.6912 48.4998 35.8721V8.00479L47.0415 8.38833C46.9671 9.46896 46.9992 10.4985 46.8096 11.4844C46.2452 14.4098 44.4252 16.3727 41.7958 17.6283C40.9048 18.0542 39.9467 17.6954 39.4129 16.784C38.4621 15.1667 37.5346 13.5348 36.6042 11.9117C35.42 9.86125 34.2358 7.81132 33.0517 5.76187C32.3604 4.56167 32.6492 3.58167 33.8333 2.85542C36.5269 1.20312 39.3152 0.899792 42.2188 2.22688C42.7421 2.48224 43.2385 2.78955 43.7004 3.14417C43.8086 3.23584 43.9389 3.29756 44.0784 3.32315C44.2178 3.34873 44.3615 3.33731 44.4952 3.29C45.6619 2.95167 46.8373 2.62792 48.0215 2.31875C51.3392 1.44375 54.1465 3.59625 54.1465 7.03354C54.1465 18.2258 54.1465 29.4185 54.1465 40.6117C54.1465 41.0623 54.2456 41.3933 54.5971 41.7025C55.4094 42.4156 55.771 43.3883 56.019 44.4106V45.7231C55.9781 45.8398 55.93 45.955 55.8994 46.0746C55.4969 47.619 54.5985 48.7637 53.1008 49.3427C51.205 50.0719 49.49 49.6927 48.0142 48.2927C43.3747 43.8915 38.7367 39.4892 34.1002 35.086C33.8931 34.8906 33.6452 34.6179 33.4017 34.6004C32.5573 34.5406 31.7071 34.5785 30.8277 34.5785C30.8277 37.5273 30.8277 40.4221 30.8423 43.3183C30.8423 43.4554 31.029 43.6537 31.1748 43.7165C35.3923 45.5452 37.7519 48.7414 38.2535 53.305C38.4183 54.7808 38.1398 55.3175 36.8783 56.0044H15.4408C14.2275 55.5231 13.8994 54.5869 14.0335 53.3692C14.5323 48.8556 16.816 45.64 20.9781 43.7996C21.3515 43.6348 21.49 43.47 21.4871 43.0544C21.4667 40.4119 21.4769 37.7694 21.4754 35.1269C21.4754 34.9504 21.4579 34.774 21.4462 34.5435H20.8235C19.3477 34.5435 17.8704 34.5085 16.3946 34.5523C14.2202 34.6179 12.6554 33.724 11.5135 31.8602C8.20604 26.4848 4.85771 21.1458 1.52979 15.7981C0.915833 14.8123 0.247917 13.8542 0 12.6875V3.9375C0.30625 2.84229 0.716042 1.77333 1.68437 1.11417C2.37125 0.648958 3.18208 0.364583 3.9375 0H5.35938ZM1.85937 8.32708C1.85937 9.45729 1.8725 10.5875 1.85937 11.7177C1.84968 12.4311 2.05277 13.1313 2.44271 13.7287C6.02437 19.4794 9.59875 25.2335 13.1658 30.991C13.895 32.165 14.8648 32.6915 16.2283 32.6856C21.751 32.6623 27.2723 32.6856 32.795 32.6667C33.2581 32.6512 33.7195 32.7308 34.1507 32.9006C34.5819 33.0704 34.9737 33.3268 35.3019 33.654C37.679 35.9406 40.0823 38.1996 42.474 40.4717C44.7606 42.6417 47.0453 44.8122 49.3281 46.9831C50.1681 47.7765 51.1671 48.0127 52.2608 47.6394C53.2977 47.2865 53.9146 46.5281 54.0867 45.4519C54.2587 44.3756 53.8125 43.5196 53.0323 42.7817C47.899 37.9206 42.7739 33.0497 37.6571 28.1692C37.293 27.8021 36.8574 27.5138 36.3772 27.3221C35.897 27.1305 35.3826 27.0396 34.8658 27.055C29.2892 27.0798 23.7125 27.055 18.1358 27.0769C17.481 27.0769 17.061 26.8567 16.6979 26.3069C13.861 22.0058 11.0056 17.7158 8.13167 13.4371C7.67491 12.774 7.43726 11.9846 7.45208 11.1796C7.46958 9.06646 7.46229 6.95042 7.45208 4.83875C7.45208 3.10188 6.25625 1.85062 4.64042 1.86521C3.05521 1.87833 1.86958 3.13833 1.86958 4.82854C1.85937 5.99521 1.86375 7.16187 1.86375 8.32708H1.85937ZM15.8594 54.1085H36.3927C36.3851 53.0128 36.1908 51.9263 35.8181 50.8958C35.6942 50.5356 35.5192 50.4015 35.121 50.4044C31.5306 50.4219 27.9417 50.4146 24.3512 50.4146C21.929 50.4146 19.5052 50.4073 17.0815 50.4262C16.8962 50.4262 16.606 50.5633 16.5433 50.7106C16.0935 51.7853 15.8639 52.9392 15.8681 54.1042L15.8594 54.1085ZM52.2725 39.4829V7.06125C52.2725 6.91542 52.2725 6.76958 52.2652 6.62375C52.1602 5.02979 50.7675 3.73771 49.2537 3.98271C47.9908 4.18687 46.76 4.59521 45.5248 4.91021C45.527 4.95236 45.5324 4.99428 45.5408 5.03562C45.8325 5.54167 46.0002 6.29125 46.4246 6.48083C46.849 6.67042 47.5183 6.28979 48.0827 6.16292C48.9723 5.96458 49.8721 6.37146 50.2046 7.19396C50.3424 7.56712 50.4087 7.96291 50.4 8.36063C50.4107 17.9642 50.4151 27.5674 50.4131 37.17C50.4131 37.38 50.4029 37.6585 50.5225 37.7854C51.0417 38.3425 51.609 38.85 52.2725 39.4829ZM34.545 4.62875L41.0579 15.9075C43.5794 14.6635 45.0698 12.7312 45.1223 9.93708C45.1733 7.22458 43.9133 5.16104 41.4765 3.94917C39.0658 2.75625 36.75 3.13979 34.545 4.62875ZM28.8983 43.0062V34.5844H23.3654V43.0062H28.8983ZM34.405 48.5173C34.386 48.4327 34.389 48.3919 34.37 48.3715C34.2956 48.2694 34.2242 48.1673 34.1352 48.071C33.0377 46.7943 31.6189 45.8341 30.0256 45.29C28.3121 44.6892 26.5417 44.7723 24.7756 44.8394C22.066 44.9415 19.8421 46.0935 18.0673 48.1352C17.9742 48.2597 17.888 48.3892 17.8092 48.5231L34.405 48.5173ZM28.0292 21.42H33.5417V19.6204H28.0292V21.42Z" fill="black"/>
<path d="M0 12.6875C0.247917 13.8542 0.915833 14.8123 1.52979 15.7981C4.85771 21.1458 8.20604 26.4848 11.4946 31.8587C12.6365 33.7225 14.2013 34.6165 16.3756 34.5508C17.8515 34.5071 19.3288 34.5421 20.8046 34.5421H21.4273C21.439 34.7696 21.4565 34.946 21.4565 35.1254C21.4565 37.7679 21.4477 40.4104 21.4681 43.0529C21.4681 43.4685 21.3325 43.6362 20.9592 43.7981C16.7971 45.6371 14.5133 48.8542 14.0146 53.3648C13.8804 54.5825 14.2085 55.5187 15.4219 56H0V12.6875Z" fill="white"/>
<path d="M36.8597 56C38.1211 55.3131 38.3997 54.7765 38.2349 53.3006C37.7254 48.7409 35.3658 45.5447 31.1561 43.7121C31.0103 43.6494 30.8251 43.451 30.8236 43.314C30.8047 40.4177 30.809 37.5229 30.809 34.5742C31.684 34.5742 32.5386 34.5363 33.383 34.596C33.6265 34.6135 33.8744 34.8877 34.0815 35.0817C38.7219 39.4819 43.3599 43.8842 47.9955 48.2883C49.4713 49.6883 51.1819 50.0733 53.0822 49.3383C54.5799 48.755 55.4782 47.6146 55.8807 46.0702C55.9113 45.9506 55.9594 45.8354 56.0003 45.7188V56H36.8597Z" fill="white"/>
<path d="M3.9375 0C3.18208 0.364583 2.37125 0.648958 1.68437 1.11417C0.716042 1.77333 0.30625 2.84229 0 3.9375V0H3.9375Z" fill="white"/>
<path d="M1.86455 8.32708C1.86455 7.16042 1.86455 5.99375 1.86455 4.82708C1.8733 3.13833 3.0633 1.87833 4.64413 1.86521C6.25997 1.85062 7.44997 3.10187 7.4558 4.83875C7.46309 6.95187 7.47038 9.06792 7.4558 11.1796C7.44098 11.9846 7.67863 12.774 8.13538 13.4371C11.0054 17.7149 13.8627 22.0038 16.7075 26.304C17.0706 26.8538 17.4906 27.0754 18.1454 27.074C23.722 27.055 29.2987 27.074 34.8754 27.0521C35.3922 27.0366 35.9066 27.1276 36.3867 27.3192C36.8669 27.5109 37.3025 27.7992 37.6666 28.1663C42.7757 33.0546 47.9007 37.9254 53.0418 42.7788C53.822 43.5167 54.2698 44.364 54.0962 45.449C53.9227 46.534 53.3073 47.2865 52.2704 47.6365C51.1766 48.0098 50.1777 47.7735 49.3377 46.9802C47.0461 44.816 44.7614 42.6456 42.4835 40.4688C40.0918 38.1967 37.6885 35.9377 35.3114 33.651C34.9821 33.3235 34.589 33.0671 34.1566 32.8978C33.7241 32.7285 33.2614 32.6498 32.7973 32.6667C27.2745 32.6856 21.7533 32.6667 16.2306 32.6856C14.8612 32.6856 13.8856 32.165 13.1681 30.991C9.60781 25.2258 6.03149 19.4717 2.43913 13.7288C2.04919 13.1313 1.84611 12.4311 1.8558 11.7177C1.87768 10.5875 1.86455 9.45729 1.86455 8.32708Z" fill="white"/>
<path d="M15.8673 54.1042C15.8617 52.9358 16.0913 51.7782 16.5425 50.7004C16.6052 50.5546 16.8954 50.4175 17.0806 50.416C19.5044 50.3971 21.9281 50.4044 24.3504 50.4044C27.9408 50.4044 31.5298 50.4044 35.1202 50.3942C35.5183 50.3942 35.6933 50.5254 35.8173 50.8856C36.1906 51.9179 36.3849 53.0064 36.3919 54.1042H15.8673Z" fill="white"/>
<path d="M52.2731 39.4829C51.6096 38.85 51.0437 38.3425 50.5231 37.7898C50.4035 37.6629 50.4137 37.3844 50.4137 37.1744C50.4079 27.5717 50.4035 17.9686 50.4006 8.36499C50.4093 7.96727 50.343 7.57148 50.2052 7.19832C49.8727 6.37582 48.9729 5.96894 48.0833 6.16728C47.5189 6.29415 46.8466 6.67332 46.4252 6.48519C46.0037 6.29707 45.8258 5.54603 45.5414 5.03999C45.533 4.99864 45.5276 4.95672 45.5254 4.91457C46.7606 4.59957 47.9914 4.1854 49.2543 3.98707C50.7681 3.74207 52.1608 5.03415 52.2658 6.62811C52.276 6.77394 52.2731 6.91978 52.2731 7.06561V39.4829Z" fill="white"/>
<path d="M34.5449 4.62876C36.7514 3.1398 39.0658 2.75626 41.472 3.94918C43.9133 5.16105 45.1733 7.22459 45.1178 9.93709C45.0653 12.7313 43.5749 14.6636 41.0535 15.9075L34.5449 4.62876ZM38.9812 5.14355C38.1339 5.13188 37.7197 5.45855 37.6876 6.01126C37.6555 6.56397 38.0347 6.95918 38.6793 7.00001C39.7001 7.06563 40.4628 7.53376 41.0301 8.37959C41.3743 8.89438 41.9051 9.00376 42.3426 8.70918C42.7801 8.41459 42.9026 7.88522 42.576 7.36605C41.7083 5.97918 40.422 5.2573 38.9812 5.14355Z" fill="white"/>
<path d="M28.8982 43.0063H23.3652V34.5844H28.8982V43.0063Z" fill="white"/>
<path d="M34.4059 48.5173H17.8203C17.9009 48.3817 17.989 48.2507 18.0843 48.125C19.8532 46.0833 22.0772 44.9313 24.7926 44.8292C26.5543 44.7621 28.3247 44.6833 30.0426 45.2798C31.6359 45.8239 33.0547 46.7841 34.1522 48.0608C34.2353 48.1571 34.3126 48.2592 34.387 48.3613C34.3899 48.3919 34.387 48.4327 34.4059 48.5173Z" fill="white"/>
<path d="M28.0293 21.42V19.6204H33.5418V21.42H28.0293Z" fill="white"/>
<path d="M38.9812 5.14355C40.422 5.2573 41.7083 5.97918 42.5833 7.36605C42.9099 7.88522 42.802 8.41313 42.3499 8.70918C41.8979 9.00522 41.3743 8.89438 41.0374 8.37959C40.4701 7.53376 39.706 7.06709 38.6866 7.00001C38.042 6.95918 37.6658 6.56251 37.6949 6.01126C37.7241 5.46001 38.1339 5.13188 38.9812 5.14355Z" fill="black"/>
</g>
<defs>
<clipPath id="clip0_69_2299">
<rect width="56" height="56" fill="white"/>
</clipPath>
</defs>
</svg>
