<svg width="56" height="56" viewBox="0 0 56 56" fill="none" xmlns="http://www.w3.org/2000/svg">
<g clip-path="url(#clip0_69_2260)">
<path d="M0 32.044V0H56V32.044C55.9665 32.0026 55.9385 31.957 55.9169 31.9083C55.3715 29.9527 54.0837 28.9567 52.0654 28.9333C51.835 28.9333 51.6046 28.9333 51.3246 28.9333V28.261C51.3246 25.1796 51.2575 22.0967 51.3435 19.0181C51.4267 16.0577 49.156 13.914 46.3225 13.9752C42.8065 14.0569 39.2875 13.9927 35.7685 13.9956C32.7542 13.9956 30.8102 15.9338 30.8102 18.954C30.8044 22.0534 30.8044 25.1528 30.8102 28.2523V28.8925H25.1956V28.1983C25.1956 25.0979 25.2029 21.999 25.1956 18.9C25.1825 15.9483 23.2269 14 20.2869 14C16.7504 14 13.2125 14.0613 9.6775 13.9781C6.90667 13.914 4.57333 16.0198 4.65646 19.0225C4.74396 22.101 4.67542 25.184 4.67542 28.264V28.9538C4.22188 28.9538 3.85875 28.9304 3.49854 28.9538C1.95417 29.0719 0.891042 29.8783 0.269792 31.2871C0.160417 31.5263 0.0889583 31.7917 0 32.044ZM33.705 9.33333C33.4017 9.79854 33.1494 10.1748 32.9073 10.5554C32.5573 11.1067 32.6244 11.6433 33.075 11.9525C33.5256 12.2617 34.0725 12.1508 34.4385 11.6156C35.0219 10.7581 35.5892 9.8875 36.1681 9.02708C36.3079 8.84459 36.3837 8.62113 36.3837 8.39125C36.3837 8.16138 36.3079 7.93791 36.1681 7.75542C35.5848 6.89354 35.0219 6.02437 34.4356 5.16833C34.0783 4.64625 33.5169 4.51938 33.0706 4.83C32.6244 5.14062 32.5573 5.68021 32.9087 6.23146C33.1494 6.60917 33.3988 6.9825 33.6831 7.41563H22.3125C22.5867 6.99563 22.8258 6.63833 23.0592 6.27667C23.4369 5.69333 23.3829 5.14792 22.9206 4.82854C22.4583 4.50917 21.8998 4.65354 21.525 5.21646C20.9621 6.04479 20.4225 6.88771 19.8552 7.71313C19.5344 8.17979 19.5402 8.61146 19.8552 9.07521C20.4123 9.88604 20.946 10.7115 21.4958 11.5267C21.91 12.1406 22.4292 12.2908 22.9192 11.951C23.38 11.6302 23.434 11.0892 23.0548 10.5044C22.8142 10.1325 22.5677 9.765 22.2819 9.33771L33.705 9.33333Z" fill="white"/>
<path d="M0 32.0439C0.0889583 31.7887 0.160417 31.5262 0.269792 31.2798C0.891042 29.8783 1.95417 29.0719 3.49854 28.9464C3.85875 28.9187 4.22771 28.9464 4.67542 28.9464V28.2567C4.67542 25.1767 4.74396 22.0937 4.65646 19.0152C4.57042 16.0096 6.90375 13.911 9.6775 13.9708C13.2125 14.0539 16.7504 13.9883 20.2869 13.9927C23.2269 13.9927 25.1825 15.9454 25.1912 18.8927C25.2 21.9917 25.1912 25.0906 25.1912 28.191V28.8852H30.8058V28.2479C30.8058 25.1494 30.8058 22.05 30.8058 18.9496C30.8058 15.9337 32.7513 13.9912 35.7642 13.9912C39.2831 13.9912 42.8021 14.0525 46.3181 13.9708C49.1502 13.9052 51.4223 16.0533 51.3392 19.0137C51.2531 22.0923 51.3202 25.1752 51.3202 28.2567V28.9289C51.6002 28.9289 51.8306 28.9289 52.061 28.9289C54.0794 28.9523 55.3671 29.9498 55.9125 31.9039C55.9341 31.9526 55.9621 31.9982 55.9956 32.0396V47.3521C55.8914 47.7345 55.7648 48.1104 55.6165 48.4779C54.6992 50.435 53.1373 51.3246 50.9892 51.3231C35.6601 51.3124 20.3316 51.3124 5.00354 51.3231C4.82125 51.3231 4.63896 51.3231 4.45667 51.3114C3.48636 51.2741 2.55247 50.9321 1.78755 50.3339C1.02264 49.7357 0.465568 48.9118 0.195417 47.9792C0.134167 47.7735 0.065625 47.5708 0 47.3652V32.0439ZM4.62583 30.8569C2.68625 30.5302 1.81854 31.5758 1.84187 33.1902C1.90458 37.5827 1.86229 41.9767 1.86375 46.3706C1.86375 48.3248 2.9925 49.4535 4.95104 49.4535H51.0417C53.006 49.4535 54.1304 48.3292 54.1319 46.3721C54.1319 41.9057 54.1319 37.4398 54.1319 32.9744C54.1319 31.3235 53.0046 30.4719 51.3129 30.9006C51.469 33.7298 50.7194 36.2964 48.8337 38.4635C46.9481 40.6306 44.5317 41.7973 41.6719 41.9752C39.2465 42.1573 36.839 41.4392 34.9096 39.9583C31.9025 37.6804 30.644 34.5727 30.8029 30.8569H25.184C25.3371 33.8289 24.5467 36.4554 22.5458 38.64C20.545 40.8246 18.009 41.9096 15.0383 42.0087C10.1777 42.1648 4.10521 37.9283 4.62583 30.8569ZM23.3231 25.5208C23.3231 23.2429 23.3377 20.965 23.3231 18.6871C23.3085 17.0567 22.1433 15.8725 20.5392 15.8667C16.8029 15.8521 13.0676 15.8521 9.33333 15.8667C8.96688 15.8587 8.60261 15.9249 8.26237 16.0613C7.92214 16.1976 7.61295 16.4013 7.35336 16.66C7.09377 16.9188 6.88913 17.2273 6.75173 17.5671C6.61433 17.907 6.54699 18.271 6.55375 18.6375C6.53917 23.1014 6.51 27.5669 6.56396 32.0308C6.61792 36.4058 10.2098 39.986 14.5848 40.1333C19.4046 40.2937 23.2604 36.6333 23.3231 31.8092C23.3465 29.7092 23.3231 27.6135 23.3231 25.5208ZM32.6754 25.4712C32.6754 27.5129 32.6608 29.5546 32.6842 31.5962C32.6791 32.2696 32.7441 32.9416 32.8781 33.6014C33.8158 37.7096 37.6906 40.5358 41.7521 40.1144C46.2262 39.6492 49.42 36.2294 49.4506 31.8019C49.4798 27.4823 49.4608 23.1642 49.4506 18.8446C49.4506 16.9925 48.3029 15.8594 46.4421 15.8579C42.8526 15.8579 39.2632 15.8579 35.6737 15.8579C33.8173 15.8579 32.6783 16.9954 32.6725 18.8533C32.6667 21.0598 32.6754 23.2648 32.6754 25.4683V25.4712Z" fill="black"/>
<path d="M0 47.3579C0.065625 47.5635 0.134167 47.7662 0.195417 47.9719C0.464517 48.9066 1.02169 49.7326 1.78758 50.3322C2.55348 50.9318 3.48904 51.2745 4.46104 51.3115C4.64333 51.3202 4.82562 51.3231 5.00792 51.3231C20.336 51.3231 35.6645 51.3231 50.9935 51.3231C53.1431 51.3231 54.7035 50.435 55.6208 48.4779C55.7692 48.1104 55.8958 47.7345 56 47.3521V56H0V47.3579Z" fill="white"/>
<path d="M33.7047 9.33333H22.2903C22.582 9.77083 22.8226 10.1325 23.0633 10.5C23.4424 11.0833 23.3885 11.6258 22.9276 11.9467C22.4376 12.2865 21.9185 12.1362 21.5043 11.5223C20.9545 10.7071 20.4208 9.88166 19.8637 9.07083C19.5458 8.60708 19.5399 8.17541 19.8637 7.70875C20.431 6.88333 20.9706 6.04041 21.5335 5.21208C21.9141 4.64916 22.4668 4.50479 22.9291 4.82416C23.3914 5.14354 23.4453 5.68604 23.0676 6.27229C22.8343 6.63396 22.5951 6.99125 22.321 7.41125H33.6872C33.4028 6.97375 33.1535 6.60479 32.9128 6.22708C32.5614 5.67583 32.6212 5.13916 33.0747 4.82562C33.5283 4.51208 34.0824 4.64187 34.4397 5.16396C35.0231 6.02 35.5933 6.88916 36.1722 7.75104C36.312 7.93353 36.3878 8.157 36.3878 8.38687C36.3878 8.61675 36.312 8.84022 36.1722 9.02271C35.5889 9.88312 35.0274 10.7537 34.4426 11.6112C34.0766 12.1465 33.5414 12.266 33.0791 11.9481C32.6168 11.6302 32.5614 11.1023 32.9114 10.551C33.1491 10.1777 33.3955 9.80146 33.7047 9.33333Z" fill="black"/>
<path d="M4.6251 30.8569C4.10448 37.9283 10.177 42.1648 15.0376 42.0014C18.0082 41.9023 20.5355 40.8348 22.5451 38.6327C24.5547 36.4306 25.3364 33.8202 25.1832 30.8496H30.8022C30.6432 34.5654 31.9018 37.6731 34.9089 39.951C36.8371 41.4351 39.2446 42.1562 41.6711 41.9767C44.5309 41.7987 46.9445 40.6292 48.833 38.465C50.7216 36.3008 51.4726 33.7312 51.3122 30.9021C53.0038 30.4733 54.1311 31.325 54.1311 32.9758C54.1311 37.4412 54.1311 41.9071 54.1311 46.3735C54.1311 48.3306 53.0053 49.455 51.0409 49.455H4.9576C2.99906 49.455 1.87177 48.3262 1.87031 46.3721C1.87031 41.9781 1.91115 37.5842 1.84844 33.1917C1.81781 31.5758 2.68552 30.5302 4.6251 30.8569Z" fill="white"/>
<path d="M23.3236 25.5208C23.3236 27.6165 23.347 29.7121 23.3236 31.8077C23.2609 36.6319 19.4051 40.2923 14.5853 40.1319C10.2103 39.986 6.61843 36.4088 6.56447 32.0294C6.51052 27.5654 6.53968 23.1 6.55427 18.636C6.5475 18.2696 6.61484 17.9055 6.75225 17.5657C6.88965 17.2259 7.09429 16.9174 7.35387 16.6586C7.61346 16.3998 7.92265 16.1962 8.26289 16.0598C8.60313 15.9235 8.9674 15.8573 9.33385 15.8652C13.0682 15.8506 16.8034 15.8506 20.5397 15.8652C22.1438 15.8652 23.3105 17.0552 23.3236 18.6856C23.3338 20.9621 23.3236 23.24 23.3236 25.5208ZM10.2686 19.5854H13.3691C13.5513 19.5854 13.7336 19.5927 13.9159 19.5854C14.5241 19.5694 14.9236 19.2077 14.9368 18.674C14.9499 18.1402 14.5518 17.7406 13.9509 17.7275C12.7668 17.7042 11.5826 17.7013 10.3984 17.6998C9.17197 17.6998 8.42239 18.4421 8.41656 19.67C8.40927 21.3281 8.41656 22.9863 8.41656 24.6444C8.41656 25.464 8.40781 26.285 8.42531 27.1046C8.43552 27.5888 8.72864 27.8819 9.1851 27.9796C9.37447 28.0261 9.57419 28.0042 9.74897 27.9177C9.92376 27.8313 10.0624 27.6858 10.1403 27.5071C10.2381 27.2738 10.2839 27.022 10.2745 26.7692C10.2832 24.656 10.2745 22.54 10.2745 20.4283L10.2686 19.5854Z" fill="white"/>
<path d="M32.6757 25.4683C32.6757 23.2648 32.6757 21.0598 32.6757 18.8548C32.6757 16.9969 33.8205 15.8608 35.6769 15.8594C39.2674 15.8594 42.8568 15.8594 46.4453 15.8594C48.3061 15.8594 49.4524 16.994 49.4538 18.846C49.4538 23.1656 49.4786 27.4837 49.4538 31.8033C49.4232 36.225 46.2294 39.6448 41.7553 40.1158C37.6924 40.5373 33.819 37.711 32.8813 33.6029C32.7473 32.943 32.6823 32.271 32.6874 31.5977C32.6669 29.5517 32.6757 27.51 32.6757 25.4683ZM36.4076 19.5869C37.6369 19.5869 38.7992 19.5869 39.9615 19.5869C40.6499 19.5869 41.064 19.2281 41.0596 18.6535C41.0553 18.079 40.6557 17.7363 39.9994 17.726C38.7978 17.7085 37.5947 17.694 36.393 17.7042C35.3342 17.7042 34.5744 18.4698 34.5482 19.53C34.5307 20.2767 34.5482 21.0233 34.5482 21.7715C34.5482 23.5215 34.5482 25.2715 34.5482 27.0215C34.5482 27.6048 34.923 27.981 35.4392 27.9971C35.9555 28.0131 36.3492 27.6325 36.4003 27.0769C36.4192 26.8785 36.4076 26.6773 36.4076 26.476V19.5869Z" fill="white"/>
<path d="M10.2683 19.5825V20.4239C10.2683 22.5371 10.2683 24.6531 10.2683 26.7648C10.2778 27.0176 10.232 27.2694 10.1341 27.5027C10.0562 27.6814 9.91759 27.8269 9.74281 27.9134C9.56802 27.9998 9.3683 28.0217 9.17893 27.9752C8.72247 27.8819 8.42935 27.5887 8.41914 27.1002C8.40164 26.2806 8.41039 25.4596 8.41039 24.64C8.41039 22.9819 8.41039 21.3237 8.41039 19.6656C8.41039 18.4377 9.16581 17.6939 10.3923 17.6954C11.5764 17.6954 12.7606 17.6954 13.9448 17.7231C14.5456 17.7362 14.9393 18.1373 14.9306 18.6696C14.9218 19.2019 14.5237 19.565 13.9098 19.581C13.7275 19.581 13.5452 19.581 13.3629 19.581L10.2683 19.5825Z" fill="black"/>
<path d="M36.4075 19.5869V26.4702C36.4075 26.6715 36.4192 26.8727 36.4002 27.0711C36.3492 27.6267 35.9452 28.0073 35.4392 27.9913C34.9332 27.9752 34.5525 27.5946 34.5482 27.0156C34.5365 25.2656 34.5482 23.5156 34.5482 21.7656C34.5482 21.0175 34.5365 20.2708 34.5482 19.5242C34.5744 18.464 35.3342 17.7056 36.3929 17.6983C37.5946 17.6881 38.7977 17.6983 39.9994 17.7202C40.6557 17.7304 41.0538 18.0921 41.0596 18.6477C41.0654 19.2033 40.6498 19.5796 39.9615 19.5811C38.7992 19.5883 37.6369 19.5869 36.4075 19.5869Z" fill="black"/>
</g>
<defs>
<clipPath id="clip0_69_2260">
<rect width="56" height="56" fill="white"/>
</clipPath>
</defs>
</svg>
