<svg width="24" height="25" viewBox="0 0 24 25" fill="none" xmlns="http://www.w3.org/2000/svg">
<path fill-rule="evenodd" clip-rule="evenodd" d="M4 2.41895H20C21.1046 2.41895 22 3.31438 22 4.41895V20.4189C22 21.5235 21.1046 22.4189 20 22.4189H4C2.89543 22.4189 2 21.5235 2 20.4189V4.41895C2 3.31438 2.89543 2.41895 4 2.41895ZM4 4.41895V20.4189H20V4.41895H4ZM11.1331 12.4233H13V18.4189H15V12.4233H16.9824V10.4233H15V9.41895C15 8.86666 15.4477 8.41895 16 8.41895H17V6.41895H16C14.3431 6.41895 13 7.76209 13 9.41895V10.4233H11.1331V12.4233Z" fill="#F2EDE7"/>
</svg>
