<svg width="56" height="56" viewBox="0 0 56 56" fill="none" xmlns="http://www.w3.org/2000/svg">
<g clip-path="url(#clip0_69_2272)">
<path d="M16.7363 0H55.999V56H30.3003C31.7805 55.5917 32.6949 54.5417 33.3978 53.2583C34.7467 50.7967 35.3753 48.1017 35.877 45.376C36.5709 41.466 36.9808 37.5109 37.1034 33.5417C37.118 33.1508 37.1472 32.76 37.1705 32.375C37.7022 33.1848 38.1891 34.0231 38.6288 34.8862C39.132 35.8342 39.918 36.3913 40.9884 36.4015C42.1113 36.4117 42.979 35.9012 43.5186 34.8833C46.8932 28.5318 50.2688 22.1822 53.6453 15.8346C54.2942 14.614 54.2986 13.3992 53.6628 12.1756C53.1772 11.2394 52.6682 10.3119 52.2161 9.35958C51.589 8.04708 50.5711 7.44771 49.1201 7.46375C46.6045 7.48854 44.0888 7.46375 41.5732 7.4725C41.2888 7.4725 41.0832 7.44333 40.9053 7.14729C37.3688 1.23083 31.009 -1.22354 24.4407 0.762708C23.4199 1.07479 22.3713 1.20021 21.3111 0.985833C19.7842 0.670833 18.2603 0.329583 16.7363 0Z" fill="white"/>
<path d="M16.7371 0C18.2611 0.329583 19.7851 0.670833 21.3119 0.985833C22.3721 1.20458 23.4149 1.07479 24.4415 0.762708C31.004 -1.22354 37.3696 1.23083 40.9061 7.13417C41.084 7.42583 41.2896 7.46083 41.574 7.45937C44.0896 7.45937 46.6053 7.47542 49.1209 7.45062C50.5719 7.43604 51.5899 8.03396 52.2169 9.34646C52.669 10.2987 53.178 11.2262 53.6636 12.1625C54.2994 13.386 54.2951 14.6008 53.6461 15.8215C50.2686 22.1701 46.893 28.5197 43.5194 34.8702C42.9799 35.891 42.1121 36.3985 40.9892 36.3883C39.9188 36.3781 39.1328 35.821 38.6296 34.8731C38.1899 34.01 37.703 33.1716 37.1713 32.3619C37.148 32.7527 37.1188 33.1435 37.1042 33.5285C36.9813 37.5022 36.5704 41.4618 35.8749 45.376C35.3746 48.1017 34.7461 50.7967 33.3957 53.2583C32.6928 54.5402 31.7784 55.5917 30.2982 56H29.0951C27.0315 55.4808 26.0092 53.9583 25.3501 52.096C24.784 50.478 24.4654 48.7838 24.4051 47.0706C24.3103 44.5244 24.3409 41.9738 24.2592 39.426C24.218 38.722 24.0705 38.0282 23.8217 37.3683C23.6103 36.7719 23.1101 36.419 22.4261 36.4117C21.7188 36.4117 21.2099 36.7631 20.9853 37.3844C20.7478 38.0101 20.6052 38.6678 20.5624 39.3356C20.5011 40.794 20.5536 42.2523 20.5405 43.7106C20.5186 46.1533 20.4209 48.5931 19.7909 50.9702C19.193 53.2292 18.2946 55.2796 15.7499 56H14.4374C12.8332 55.4969 11.9203 54.2879 11.194 52.8792L11.1692 52.831C10.1178 50.7281 9.53006 48.4765 9.07944 46.1883C8.16652 41.5479 7.76694 36.855 7.65027 32.1315C7.62402 31.0931 7.42423 30.0898 6.88464 29.206C4.90277 25.9438 3.56985 22.4146 2.50964 18.7673C1.95793 16.9138 1.76441 14.9722 1.93944 13.0462C2.49652 7.16771 6.73443 2.065 12.4249 0.522083C13.3319 0.277083 14.2784 0.170625 15.2059 0H16.7371ZM38.9038 7.45792C38.7157 7.17937 38.6034 6.99854 38.4765 6.82792C37.0043 4.82201 34.9442 3.32406 32.5821 2.54193C30.22 1.7598 27.6731 1.73225 25.2946 2.46312C23.3449 3.05521 21.4388 3.09896 19.5021 2.45292C17.904 1.92616 16.207 1.76958 14.5394 1.995C7.47527 2.905 2.44839 9.97354 4.00298 16.9327C4.87798 20.8381 6.28819 24.5656 8.36485 28.016C9.0561 29.1667 9.47902 30.4004 9.49798 31.7333C9.55467 35.4514 9.85671 39.1617 10.4021 42.84C10.8003 45.5438 11.2494 48.2446 12.2557 50.7996C12.6239 51.7464 13.1215 52.6377 13.7344 53.4479C14.4636 54.3856 15.5749 54.3958 16.4032 53.5413C16.8636 53.0526 17.2339 52.4863 17.4969 51.8685C18.2844 50.0558 18.5178 48.1119 18.5892 46.1592C18.668 43.9017 18.6607 41.6383 18.6753 39.3808C18.6826 38.2842 18.8867 37.2415 19.438 36.2877C20.8176 33.9077 24.0186 33.9179 25.3792 36.3081C25.8901 37.2389 26.1528 38.2856 26.1419 39.3473C26.1755 41.8615 26.174 44.3785 26.2703 46.8898C26.3344 48.5669 26.5896 50.244 27.2765 51.7869C27.5784 52.4844 28.0099 53.1184 28.5482 53.655C29.3269 54.406 30.3346 54.2908 31.0682 53.4887C31.391 53.1665 31.6537 52.7892 31.844 52.3746C32.3851 51.0081 32.9786 49.646 33.3417 48.2285C34.5084 43.6771 34.9721 39.0192 35.2376 34.3379C35.3178 32.9058 35.4067 31.4694 35.5978 30.049C35.6561 29.6115 35.6678 29.2746 35.4519 28.8823C33.1594 24.5963 30.8946 20.2956 28.5978 16.0125C27.8686 14.6635 27.8278 13.3569 28.5642 12.0094C29.0353 11.1475 29.4961 10.2769 29.9146 9.38437C30.5534 8.02375 31.6034 7.41708 33.0982 7.44479C34.9896 7.48417 36.8855 7.45792 38.9096 7.45792H38.9038ZM35.8063 14.9756C37.2267 19.6423 38.6296 24.2506 40.0355 28.8604L40.1026 28.8356V14.9815L35.8063 14.9756ZM42.0246 28.8298L42.1063 28.856C43.5078 24.2448 44.9107 19.635 46.3355 14.9785H42.0305L42.0246 28.8298ZM46.0832 13.0287C45.4809 11.8256 44.9165 10.6721 44.3171 9.52875C44.2574 9.41354 44.0255 9.33042 43.8796 9.32896C42.0208 9.31535 40.1623 9.31535 38.3044 9.32896C38.1499 9.32896 37.9151 9.40771 37.8553 9.52146C37.2573 10.6604 36.6886 11.8154 36.0849 13.0215L46.0832 13.0287ZM52.0099 14.9362C50.8899 14.9362 49.8719 14.9581 48.8555 14.926C48.4355 14.9144 48.259 15.0485 48.1365 15.4525C46.6607 20.3486 45.1737 25.2413 43.6755 30.1306C43.6244 30.2969 43.5924 30.4704 43.5501 30.641L43.6449 30.6687L52.0099 14.9362ZM38.5246 30.6965L38.6034 30.6644C38.5771 30.5492 38.5582 30.431 38.5246 30.3187C37.9015 28.2674 37.2783 26.215 36.6551 24.1617C35.7801 21.2581 34.8934 18.3531 33.998 15.4525C33.9396 15.2615 33.7544 14.9683 33.6203 14.964C32.4974 14.9231 31.3715 14.9406 30.1451 14.9406C32.9669 20.2475 35.7465 25.4713 38.5246 30.6965ZM46.3224 9.33333C46.7103 10.1165 47.1361 10.7683 47.3665 11.4829C47.7894 12.7867 48.5653 13.3204 49.9405 13.0871C50.5851 12.9762 51.2646 13.0681 52.0317 13.0681C51.4221 11.9015 50.8928 10.8267 50.2963 9.79125C50.2076 9.66859 50.0939 9.56616 49.9627 9.49073C49.8314 9.41531 49.6857 9.36862 49.5351 9.35375C48.504 9.30125 47.4671 9.33333 46.3224 9.33333ZM30.1174 13.0623C31.4007 13.0623 32.5469 13.074 33.6903 13.0477C33.7814 13.0295 33.8676 12.9916 33.9426 12.9367C34.0177 12.8818 34.0798 12.8112 34.1249 12.7298C34.4865 12.059 34.8146 11.3692 35.1559 10.6881C35.3688 10.2594 35.5846 9.83208 35.8355 9.33187C34.7009 9.33187 33.683 9.29979 32.6694 9.35229C32.3851 9.36687 31.9913 9.56083 31.8557 9.78979C31.249 10.8223 30.724 11.8971 30.1174 13.0623Z" fill="black"/>
<path d="M15.206 0C14.2785 0.170625 13.3321 0.277083 12.425 0.522083C6.7375 2.065 2.49667 7.16771 1.94542 13.0462C1.77039 14.9722 1.96391 16.9138 2.51562 18.7673C3.57292 22.4131 4.90583 25.9438 6.89062 29.206C7.43021 30.0942 7.63 31.0931 7.65625 32.1315C7.77729 36.8521 8.1725 41.5479 9.08542 46.1883C9.53604 48.4765 10.1237 50.7281 11.1752 52.831L11.2 52.8792C11.9292 54.2879 12.845 55.4969 14.4433 56H0V0H15.206Z" fill="white"/>
<path d="M15.75 56C18.2919 55.2796 19.1902 53.2292 19.791 50.9644C20.421 48.5873 20.5202 46.1519 20.5406 43.7048C20.5538 42.2465 20.5012 40.7881 20.5625 39.3298C20.603 38.6623 20.7431 38.0046 20.9781 37.3785C21.2027 36.7573 21.7073 36.4 22.419 36.4058C23.1029 36.4058 23.6031 36.766 23.8146 37.3625C24.0634 38.0224 24.2109 38.7162 24.2521 39.4202C24.3381 41.9679 24.3075 44.5244 24.3979 47.0648C24.4582 48.7779 24.7768 50.4722 25.3429 52.0902C26.0021 53.9554 27.0244 55.475 29.0879 55.9942L15.75 56Z" fill="white"/>
<path d="M38.9088 7.45793C36.8847 7.45793 34.9888 7.48418 33.0945 7.44918C31.5997 7.42147 30.5497 8.03251 29.9109 9.38876C29.4924 10.2769 29.0359 11.1475 28.5605 12.0138C27.8313 13.3613 27.8692 14.6679 28.594 16.0169C30.8953 20.3 33.1601 24.6006 35.4482 28.8867C35.6582 29.279 35.6465 29.6158 35.594 30.0533C35.403 31.4738 35.314 32.9102 35.2338 34.3423C34.9728 39.0236 34.5047 43.6756 33.338 48.2329C32.9749 49.6504 32.3813 51.0125 31.8403 52.379C31.65 52.7935 31.3873 53.1708 31.0645 53.4931C30.3353 54.2952 29.3232 54.4104 28.5445 53.6594C28.0047 53.1217 27.5721 52.4863 27.2699 51.7869C26.583 50.2396 26.3278 48.5669 26.2636 46.8898C26.1674 44.3786 26.1688 41.8615 26.1353 39.3473C26.1458 38.2872 25.8837 37.2421 25.374 36.3125C24.0134 33.9223 20.8124 33.9121 19.4328 36.2921C18.8815 37.2458 18.6774 38.2886 18.6701 39.3852C18.6555 41.6442 18.6628 43.9061 18.584 46.1636C18.5155 48.1163 18.2792 50.0602 17.4917 51.8729C17.2288 52.4907 16.8585 53.057 16.398 53.5456C15.5697 54.4002 14.4526 54.39 13.7292 53.4523C13.1155 52.6408 12.6173 51.7481 12.249 50.7996C11.2428 48.2446 10.7907 45.5496 10.3955 42.84C9.85006 39.1617 9.54802 35.4514 9.49133 31.7333C9.47237 30.4004 9.05383 29.1623 8.3582 28.0131C6.28154 24.5656 4.86987 20.8381 3.99633 16.9298C2.44758 9.97355 7.47445 2.90501 14.5386 1.99501C16.2081 1.76869 17.9072 1.92528 19.5072 2.45293C21.4438 3.09897 23.3499 3.05522 25.2997 2.46314C27.6781 1.73226 30.2251 1.75981 32.5871 2.54194C34.9492 3.32407 37.0093 4.82202 38.4815 6.82793C38.6084 7.00001 38.7207 7.17939 38.9088 7.45793ZM5.48237 14.5513C5.69675 15.6158 5.88633 16.6877 6.13571 17.745C6.24216 18.2 6.61841 18.4188 7.09675 18.3736C7.52258 18.3327 7.82591 18.0921 7.8857 17.6692C7.90893 17.4 7.8787 17.1289 7.79675 16.8715C7.32862 15.1215 7.30966 13.3613 7.95279 11.6623C9.33237 8.02084 11.9574 5.95147 15.8949 5.65251C16.6751 5.59272 17.098 5.21501 17.0615 4.63897C17.0251 4.06293 16.5642 3.74501 15.7767 3.78876C10.0426 4.10814 5.58154 8.82001 5.48237 14.5513Z" fill="white"/>
<path d="M35.8125 14.9756H40.1044V28.8298L40.0373 28.8546C38.6358 24.2506 37.2329 19.6423 35.8125 14.9756Z" fill="white"/>
<path d="M42.0312 28.824V14.9698H46.3348C44.9173 19.6262 43.5144 24.236 42.1056 28.8473L42.0312 28.824Z" fill="white"/>
<path d="M46.0832 13.0288H36.0703C36.6755 11.8198 37.237 10.6648 37.8407 9.52876C37.9005 9.41501 38.1324 9.33626 38.2899 9.33626C40.1478 9.32265 42.0062 9.32265 43.8651 9.33626C44.0109 9.33626 44.2501 9.42084 44.3026 9.53605C44.9064 10.6721 45.4736 11.8256 46.0832 13.0288Z" fill="white"/>
<path d="M52.0028 14.9362L43.6378 30.6687L43.543 30.641C43.5853 30.4704 43.6173 30.2969 43.6684 30.1306C45.1578 25.2384 46.6434 20.3476 48.1251 15.4583C48.2476 15.0544 48.424 14.9202 48.844 14.9319C49.8648 14.9581 50.8828 14.9362 52.0028 14.9362Z" fill="white"/>
<path d="M38.5241 30.6964C35.746 25.4712 32.9664 20.2475 30.1445 14.9464C31.371 14.9464 32.4968 14.9289 33.6197 14.9698C33.7539 14.9698 33.9391 15.2614 33.9974 15.4583C34.8929 18.3589 35.7722 21.2639 36.6545 24.1675C37.2777 26.2208 37.9009 28.2732 38.5241 30.3246C38.5577 30.4369 38.5766 30.555 38.6029 30.6702L38.5241 30.6964Z" fill="white"/>
<path d="M46.3223 9.33332C47.4671 9.33332 48.5098 9.30415 49.5306 9.35374C49.6812 9.36861 49.827 9.4153 49.9582 9.49072C50.0894 9.56614 50.2032 9.66857 50.2918 9.79124C50.8883 10.8267 51.4177 11.9 52.0273 13.0681C51.2602 13.0681 50.5806 12.9762 49.936 13.0871C48.5608 13.3219 47.785 12.7954 47.3621 11.4829C47.136 10.7654 46.7102 10.1135 46.3223 9.33332Z" fill="white"/>
<path d="M30.1172 13.0623C30.7239 11.8956 31.2489 10.8223 31.8497 9.79126C31.9853 9.55793 32.3791 9.36397 32.6634 9.35376C33.6843 9.30126 34.6949 9.33334 35.8295 9.33334C35.5786 9.83355 35.3628 10.2608 35.1499 10.6896C34.8086 11.3736 34.4805 12.0633 34.1189 12.7313C34.074 12.812 34.0122 12.8821 33.9377 12.9368C33.8632 12.9914 33.7777 13.0292 33.6872 13.0477C32.5468 13.074 31.4005 13.0623 30.1172 13.0623Z" fill="white"/>
<path d="M5.48242 14.5512C5.58159 8.82 10.0426 4.10812 15.7622 3.78875C16.5497 3.745 17.0018 4.04396 17.047 4.63896C17.0922 5.23396 16.6678 5.59271 15.8803 5.65979C11.9574 5.95146 9.33242 8.02083 7.95284 11.6667C7.30971 13.3656 7.32867 15.1215 7.7968 16.8758C7.87875 17.1333 7.90898 17.4044 7.88576 17.6735C7.82596 18.0965 7.52263 18.3371 7.0968 18.3779C6.61846 18.4231 6.24221 18.2044 6.13576 17.7494C5.88638 16.6877 5.6968 15.6158 5.48242 14.5512Z" fill="black"/>
</g>
<defs>
<clipPath id="clip0_69_2272">
<rect width="56" height="56" fill="white"/>
</clipPath>
</defs>
</svg>
