<svg width="56" height="56" viewBox="0 0 56 56" fill="none" xmlns="http://www.w3.org/2000/svg">
<g clip-path="url(#clip0_69_2149)">
<path d="M0 52.0625V3.9375C0.0452083 3.80479 0.0977083 3.675 0.135625 3.53938C0.608125 1.88563 1.64646 0.768542 3.28125 0.215833L3.9375 0H42.5469C44.2604 0.555625 44.8292 1.77771 44.8248 3.5175C44.7912 14.9071 44.8073 26.2981 44.8073 37.6877C44.8073 40.2767 44.8073 42.8648 44.8073 45.4519C44.8332 46.2034 44.6005 46.941 44.1481 47.5417C43.9823 47.7659 43.8873 48.0345 43.8754 48.3131C43.8506 49.8429 43.8667 51.3756 43.8608 52.9054C43.87 53.1985 43.8484 53.4918 43.7967 53.7804C43.5327 54.9967 42.7029 55.6588 41.5625 56.0044H3.9375C3.80479 55.9592 3.675 55.9067 3.54083 55.8673C1.88562 55.3963 0.77 54.3609 0.215833 52.7246C0.145833 52.5 0.0714583 52.2813 0 52.0625ZM1.86375 47.6686C3.11208 46.725 4.43917 46.6667 5.80125 46.6681C17.7012 46.6818 29.6012 46.6842 41.5012 46.6754C42.6752 46.6754 42.9319 46.4261 42.9319 45.2769V3.23458C42.9319 2.1175 42.6708 1.86375 41.5362 1.86375H5.12896C2.94826 1.86375 1.85986 2.94389 1.86375 5.10417V47.6686ZM41.9869 48.5436H5.15229C4.91604 48.5436 4.67833 48.5436 4.44208 48.5596C4.03808 48.5989 3.64723 48.7245 3.29599 48.9279C2.94475 49.1314 2.64132 49.4079 2.40624 49.7388C2.17116 50.0697 2.00992 50.4473 1.93344 50.8459C1.85695 51.2446 1.867 51.655 1.96292 52.0494C2.29687 53.3371 3.40229 54.1348 4.87958 54.1363H40.7429C40.8703 54.1411 40.9979 54.1387 41.125 54.129C41.3565 54.1143 41.5742 54.014 41.736 53.8478C41.8977 53.6815 41.9918 53.461 42 53.2292C42.0204 52.9258 42 52.6211 42 52.2711H12.7021C12.5373 52.2711 12.3725 52.2711 12.2092 52.2711C11.6054 52.2404 11.2058 51.8671 11.2044 51.3363C11.2029 50.8054 11.604 50.4321 12.2062 50.4102C12.3885 50.4102 12.5708 50.4102 12.7531 50.4102H41.9869V48.5436Z" fill="black"/>
<path d="M41.5625 56C42.7029 55.6544 43.5327 54.9923 43.7967 53.776C43.8485 53.4874 43.87 53.1941 43.8608 52.901C43.8608 51.3698 43.8506 49.8385 43.8754 48.3088C43.8873 48.0301 43.9823 47.7615 44.1481 47.5373C44.6013 46.9364 44.8346 46.1982 44.8088 45.446C44.8088 42.858 44.8088 40.2699 44.8088 37.6819C44.8088 26.2923 44.7927 14.9013 44.8263 3.51167C44.8263 1.77188 44.2619 0.549796 42.5483 -0.00582886H56V20.8906C55.6835 20.0302 55.211 19.3069 54.339 18.9015C54.2267 18.849 54.1494 18.6098 54.145 18.464C54.1275 17.589 54.145 16.714 54.1319 15.839C54.1152 15.1095 53.8137 14.4156 53.2919 13.9056C52.7702 13.3956 52.0695 13.1101 51.3399 13.1101C50.6103 13.1101 49.9096 13.3956 49.3878 13.9056C48.8661 14.4156 48.5646 15.1095 48.5479 15.839C48.5304 16.695 48.5319 17.5525 48.5479 18.4071C48.5615 18.5292 48.5345 18.6524 48.4713 18.7578C48.4081 18.8632 48.3121 18.9449 48.1979 18.9904C47.1771 19.5358 46.6725 20.4035 46.674 21.5688C46.674 30.7329 46.674 39.8976 46.674 49.0627C46.6696 50.0343 46.9617 50.9841 47.511 51.7854C48.1396 52.7231 48.7856 53.6492 49.3879 54.6044C49.7627 55.2008 50.1958 55.7113 50.8463 56H41.5625Z" fill="white"/>
<path d="M50.8598 56C50.2036 55.7083 49.7705 55.2008 49.4015 54.6044C48.7992 53.6492 48.1532 52.7231 47.5246 51.7854C46.9752 50.9841 46.6832 50.0343 46.6875 49.0627C46.6875 39.8986 46.6875 30.7339 46.6875 21.5688C46.6875 20.4021 47.1907 19.5358 48.2115 18.9904C48.3256 18.9449 48.4217 18.8632 48.4849 18.7578C48.5481 18.6524 48.575 18.5292 48.5615 18.4071C48.544 17.5525 48.5425 16.695 48.5615 15.839C48.5782 15.1095 48.8797 14.4156 49.4014 13.9056C49.9232 13.3956 50.6239 13.1101 51.3535 13.1101C52.0831 13.1101 52.7838 13.3956 53.3055 13.9056C53.8273 14.4156 54.1288 15.1095 54.1455 15.839C54.1644 16.714 54.1455 17.589 54.1586 18.464C54.1586 18.6098 54.2403 18.8533 54.3525 18.9015C55.2275 19.3069 55.6971 20.0302 56.0136 20.8906V49.7656C55.7832 50.7865 55.2698 51.6775 54.6719 52.5292C54.16 53.2584 53.6598 53.9875 53.1917 54.7488C52.8359 55.3248 52.3998 55.7784 51.748 56H50.8598ZM51.3265 54.1421C52.0965 52.99 52.7921 51.924 53.514 50.8754C53.9416 50.2598 54.1637 49.5248 54.1484 48.7754C54.1367 44.6921 54.1484 40.6175 54.1411 36.54C54.1411 36.3475 54.125 36.1565 54.1163 35.9698H48.5863C48.5708 36.0371 48.5596 36.1053 48.5528 36.174C48.5528 40.5081 48.5455 44.8423 48.5673 49.175C48.5652 49.5932 48.6717 50.0048 48.8765 50.3694C49.6436 51.625 50.4734 52.8383 51.3338 54.1421H51.3265ZM48.5425 34.0054H54.1046C54.1199 33.9391 54.1306 33.8719 54.1367 33.8042C54.1367 29.7267 54.1367 25.6487 54.1367 21.5702C54.1367 20.8804 53.7809 20.5494 53.0794 20.5377C51.9871 20.529 50.8919 20.5377 49.8025 20.5377C48.8167 20.5377 48.5469 20.8119 48.5469 21.805C48.5469 25.6822 48.5469 29.5599 48.5469 33.4381L48.5425 34.0054ZM52.27 18.6375C52.27 17.6721 52.2875 16.7621 52.2628 15.855C52.2649 15.7357 52.2434 15.6172 52.1996 15.5062C52.1557 15.3952 52.0904 15.294 52.0073 15.2084C51.9243 15.1227 51.8251 15.0543 51.7155 15.0071C51.6059 14.9599 51.4881 14.9349 51.3688 14.9333C50.9123 14.9158 50.4544 15.225 50.4369 15.6786C50.399 16.6542 50.4253 17.6327 50.4253 18.6375H52.27Z" fill="black"/>
<path d="M51.7344 56C52.3862 55.7783 52.8223 55.3248 53.1781 54.7488C53.6462 53.9933 54.1465 53.2554 54.6583 52.5292C55.2562 51.6775 55.7696 50.7923 56 49.7656V56H51.7344Z" fill="white"/>
<path d="M3.9375 0L3.28125 0.215833C1.64646 0.768542 0.608125 1.88563 0.135625 3.53937C0.0977083 3.675 0.0452083 3.80479 0 3.9375V0H3.9375Z" fill="white"/>
<path d="M0 52.0625C0.0714583 52.2812 0.145833 52.5 0.215833 52.7202C0.767083 54.3565 1.88563 55.3919 3.54083 55.8629C3.675 55.9023 3.80479 55.9548 3.9375 56H0V52.0625Z" fill="white"/>
<path d="M1.86328 47.6685V5.10418C1.86328 2.93904 2.95168 1.85793 5.12849 1.86085H41.5402C42.6747 1.86085 42.9358 2.1146 42.9358 3.23168V45.2769C42.9358 46.426 42.6791 46.6754 41.5051 46.6754C29.6052 46.6754 17.7052 46.673 5.80516 46.6681C4.4387 46.6667 3.11161 46.725 1.86328 47.6685ZM13.9995 25.0833H14.0141C14.0141 26.3229 13.9704 27.5625 14.0243 28.8006C14.0899 30.2808 14.2912 31.7479 15.1195 33.0298C16.4131 35.035 18.9754 35.0408 20.2806 33.0488C20.8961 32.0931 21.2534 30.9943 21.3174 29.8594C21.4195 28.3719 21.4152 26.8756 21.4633 25.3838C21.4822 24.6881 21.8293 24.2769 22.401 24.274C22.9727 24.271 23.3197 24.6677 23.327 25.3779C23.3372 26.3433 23.3154 27.3102 23.3474 28.2756C23.3985 29.7748 23.5662 31.2579 24.2706 32.62C24.8656 33.7677 25.7479 34.5363 27.0983 34.5261C28.4487 34.5158 29.4141 33.7969 29.9143 32.6113C30.3095 31.6692 30.6537 30.6381 30.7033 29.6319C30.8374 26.9398 30.7835 24.2361 30.8491 21.5454C30.8501 21.0215 30.9708 20.5047 31.202 20.0346C32.1361 18.3432 32.8482 16.5385 33.321 14.665C34.0633 11.6871 33.356 9.05043 31.1758 6.89064C29.0539 4.78772 26.4931 4.1971 23.6231 5.01959C22.8143 5.26028 21.9527 5.25775 21.1454 5.0123C15.5862 3.38335 10.2079 8.31251 11.3497 14.0131C11.7607 16.051 12.4906 18.0113 13.5124 19.8217C13.8523 20.4052 14.0235 21.0716 14.0068 21.7467C13.9806 22.8579 13.9995 23.9706 13.9995 25.0833ZM22.4083 39.1942H34.9777C35.1776 39.2 35.3778 39.1942 35.577 39.1767C35.7975 39.1582 36.0032 39.0584 36.1541 38.8967C36.3051 38.735 36.3905 38.5229 36.3937 38.3017C36.3937 37.835 36.1618 37.4981 35.6908 37.3829C35.4957 37.342 35.2965 37.3244 35.0972 37.3304C26.6263 37.3304 18.1558 37.3304 9.68578 37.3304C9.46797 37.3214 9.25007 37.346 9.03974 37.4033C8.84589 37.4681 8.67937 37.596 8.56684 37.7666C8.45431 37.9372 8.40228 38.1406 8.41909 38.3443C8.43589 38.548 8.52056 38.7402 8.65953 38.89C8.7985 39.0399 8.98373 39.1388 9.18557 39.1708C9.40297 39.1947 9.62182 39.2025 9.84036 39.1942H22.4083ZM22.3689 43.8608H30.4072C30.5711 43.8677 30.7352 43.8643 30.8987 43.8506C31.1232 43.8268 31.3312 43.7217 31.4836 43.5553C31.6361 43.3888 31.7225 43.1724 31.7266 42.9467C31.7307 42.721 31.6523 42.5016 31.506 42.3297C31.3597 42.1578 31.1557 42.0452 30.9322 42.0131C30.769 41.9959 30.6047 41.991 30.4408 41.9986H14.3641C14.2002 41.991 14.0359 41.9958 13.8727 42.0131C13.6492 42.0439 13.4446 42.1552 13.2974 42.3262C13.1501 42.4971 13.0704 42.7159 13.0731 42.9415C13.0758 43.1671 13.1607 43.384 13.312 43.5514C13.4632 43.7188 13.6704 43.8252 13.8945 43.8506C14.058 43.8643 14.2221 43.8677 14.386 43.8608H22.3689Z" fill="white"/>
<path d="M41.986 48.5421V50.4088H12.7523C12.57 50.4088 12.3877 50.4088 12.2054 50.4088C11.6031 50.4307 11.2021 50.8025 11.2035 51.3348C11.205 51.8671 11.6046 52.239 12.2083 52.2696C12.3716 52.2769 12.5364 52.2696 12.7012 52.2696H41.9991C41.9991 52.6196 42.0152 52.9244 41.9991 53.2277C41.9907 53.4581 41.8975 53.6773 41.7373 53.8431C41.5772 54.0089 41.3614 54.1097 41.1314 54.1261C41.0043 54.1358 40.8768 54.1382 40.7494 54.1334H4.87581C3.4029 54.1334 2.29748 53.3342 1.95915 52.0465C1.86323 51.6521 1.85318 51.2417 1.92966 50.843C2.00615 50.4444 2.16739 50.0668 2.40247 49.7359C2.63755 49.405 2.94098 49.1285 3.29222 48.925C3.64346 48.7216 4.03431 48.596 4.43831 48.5567C4.67456 48.5377 4.91227 48.5407 5.14852 48.5407H41.986V48.5421Z" fill="white"/>
<path d="M51.3335 54.1421C50.4803 52.8383 49.6505 51.6235 48.8835 50.3694C48.6746 50.0059 48.564 49.5942 48.5626 49.175C48.5408 44.8423 48.548 40.5081 48.548 36.174C48.5549 36.1053 48.5661 36.0371 48.5816 35.9698H54.1101C54.1189 36.1565 54.1349 36.3475 54.1349 36.54C54.1349 40.6233 54.1349 44.6965 54.1422 48.7754C54.1575 49.5248 53.9354 50.2598 53.5078 50.8754C52.7918 51.924 52.0962 52.99 51.3335 54.1421Z" fill="white"/>
<path d="M48.543 34.0054V33.4367C48.543 29.5585 48.543 25.6808 48.543 21.8035C48.543 20.8104 48.8128 20.5377 49.7986 20.5363C50.8909 20.5363 51.9861 20.5363 53.0755 20.5363C53.7769 20.5363 54.1313 20.879 54.1328 21.5688C54.1386 25.6463 54.1386 29.7242 54.1328 33.8027C54.1266 33.8704 54.1159 33.9377 54.1007 34.004L48.543 34.0054Z" fill="white"/>
<path d="M52.2697 18.6375H50.4249C50.4249 17.6327 50.3986 16.6542 50.4365 15.6786C50.454 15.2294 50.9119 14.9158 51.3684 14.9333C51.4877 14.9349 51.6055 14.9599 51.7151 15.0071C51.8247 15.0543 51.9239 15.1227 52.007 15.2084C52.09 15.294 52.1554 15.3952 52.1992 15.5062C52.243 15.6172 52.2645 15.7357 52.2624 15.855C52.2872 16.7621 52.2697 17.6721 52.2697 18.6375Z" fill="white"/>
<path d="M13.9996 25.0833C13.9996 23.9721 13.9807 22.8594 13.9996 21.7481C14.0163 21.0731 13.8451 20.4066 13.5053 19.8231C12.4858 18.0118 11.7584 16.0511 11.3498 14.0131C10.208 8.3125 15.5863 3.38334 21.1455 5.0123C21.9498 5.25694 22.8081 5.26049 23.6144 5.0225C26.4844 4.2 29.0453 4.79063 31.1671 6.89355C33.3473 9.05334 34.0546 11.69 33.3123 14.6679C32.8396 16.5414 32.1274 18.3461 31.1934 20.0375C30.9622 20.5077 30.8415 21.0244 30.8405 21.5483C30.7778 24.2433 30.8317 26.9442 30.6946 29.6348C30.6451 30.641 30.3009 31.6765 29.9057 32.6142C29.4055 33.8027 28.4284 34.5188 27.0896 34.529C25.7509 34.5392 24.8569 33.7706 24.2619 32.6229C23.5576 31.2608 23.3869 29.7777 23.3388 28.2785C23.3067 27.3131 23.3286 26.3463 23.3184 25.3808C23.3184 24.6706 22.9742 24.2754 22.3923 24.2769C21.8105 24.2783 21.4736 24.691 21.4546 25.3867C21.4123 26.8785 21.4167 28.3748 21.3088 29.8623C21.2447 30.9972 20.8875 32.0961 20.2719 33.0517C18.9667 35.0438 16.4044 35.0379 15.1109 33.0327C14.2826 31.7465 14.0813 30.2794 14.0157 28.8035C13.9617 27.5669 14.0055 26.3244 14.0055 25.0863L13.9996 25.0833ZM15.8634 24.9477C15.8634 26.0779 15.7876 27.214 15.8853 28.3354C15.9923 29.4343 16.1873 30.5228 16.4686 31.5904C16.6144 32.1606 17.0198 32.6565 17.7053 32.6565C18.3673 32.6565 18.7261 32.1738 18.9157 31.6269C19.1505 30.9633 19.394 30.2735 19.448 29.5852C19.5588 28.1531 19.5501 26.7108 19.5836 25.2729C19.623 23.6513 20.8042 22.4306 22.3544 22.416C23.9586 22.4015 25.1442 23.5827 25.1807 25.2554C25.1982 26.0385 25.1719 26.8231 25.188 27.6063C25.2171 28.9188 25.2653 30.2313 25.7844 31.4679C26.0367 32.0688 26.3444 32.6769 27.1144 32.6565C27.8844 32.636 28.214 32.0454 28.4123 31.4256C28.6209 30.7723 28.8338 30.0869 28.8498 29.4102C28.9228 26.7706 28.9301 24.1281 28.9417 21.4871C28.9272 20.6459 29.1393 19.8163 29.5557 19.0852C30.4225 17.5613 31.0766 15.9259 31.4996 14.2246C32.0961 11.9175 31.5463 9.88021 29.8532 8.21042C28.2009 6.58292 26.2146 6.17896 24.0023 6.83959C22.9494 7.15606 21.8266 7.15606 20.7736 6.83959C20.3223 6.69479 19.8561 6.60183 19.3838 6.5625C15.2771 6.34813 12.2001 10.2083 13.2938 14.1954C13.7663 15.9192 14.3701 17.5948 15.2684 19.1538C15.6803 19.8674 15.8877 20.6808 15.8678 21.5046C15.8517 22.6494 15.8634 23.7985 15.8634 24.9463V24.9477Z" fill="black"/>
<path d="M22.4083 39.1927H9.84038C9.62184 39.2011 9.40299 39.1933 9.18559 39.1694C8.98375 39.1373 8.79852 39.0384 8.65955 38.8886C8.52058 38.7387 8.43591 38.5466 8.41911 38.3429C8.4023 38.1392 8.45433 37.9358 8.56686 37.7652C8.67939 37.5946 8.84591 37.4666 9.03976 37.4019C9.25009 37.3446 9.46799 37.32 9.6858 37.329C18.1558 37.329 26.6263 37.329 35.0973 37.329C35.2965 37.3229 35.4957 37.3406 35.6908 37.3815C36.1618 37.4967 36.3893 37.8336 36.3937 38.3002C36.3905 38.5214 36.3051 38.7335 36.1542 38.8953C36.0032 39.057 35.7975 39.1568 35.5771 39.1752C35.3778 39.1928 35.1776 39.1986 34.9777 39.1927H22.4083Z" fill="black"/>
<path d="M22.3701 43.8638H14.3872C14.2233 43.8706 14.0592 43.8672 13.8957 43.8536C13.6716 43.8281 13.4644 43.7217 13.3132 43.5543C13.1619 43.3869 13.077 43.1701 13.0743 42.9445C13.0716 42.7189 13.1514 42.5001 13.2986 42.3291C13.4458 42.1582 13.6504 42.0469 13.8739 42.0161C14.0371 41.9988 14.2014 41.9939 14.3653 42.0015H30.442C30.6059 41.9939 30.7702 41.9988 30.9335 42.0161C31.1569 42.0481 31.3609 42.1607 31.5072 42.3326C31.6535 42.5045 31.7319 42.7239 31.7278 42.9496C31.7237 43.1753 31.6373 43.3917 31.4848 43.5582C31.3324 43.7246 31.1244 43.8297 30.8999 43.8536C30.7365 43.8672 30.5723 43.8706 30.4085 43.8638H22.3701Z" fill="black"/>
<path d="M15.8635 24.9463C15.8635 23.7986 15.8519 22.6494 15.8635 21.5017C15.8834 20.6779 15.6761 19.8645 15.2642 19.1508C14.3658 17.5948 13.7621 15.9192 13.2896 14.1925C12.2002 10.2083 15.2773 6.34814 19.3839 6.56251C19.8551 6.60063 20.3203 6.69212 20.7708 6.83522C21.8238 7.1517 22.9466 7.1517 23.9996 6.83522C26.2119 6.1746 28.1981 6.57855 29.8504 8.20605C31.5435 9.88022 32.0933 11.9175 31.4998 14.2246C31.0804 15.9233 30.4307 17.5567 29.5689 19.0794C29.1526 19.8105 28.9405 20.6401 28.955 21.4813C28.9433 24.1223 28.936 26.7648 28.8631 29.4044C28.8442 30.0811 28.6312 30.7665 28.4256 31.4198C28.2273 32.0396 27.8831 32.6317 27.1277 32.6506C26.3723 32.6696 26.05 32.0673 25.7977 31.4621C25.2785 30.2269 25.2304 28.9129 25.2012 27.6004C25.1852 26.8173 25.2114 26.0327 25.1939 25.2496C25.1575 23.5827 23.9675 22.3956 22.3677 22.4102C20.8175 22.4248 19.6362 23.6454 19.5969 25.2671C19.5633 26.705 19.5721 28.1473 19.4612 29.5794C19.4073 30.2721 19.1696 30.9619 18.9289 31.6211C18.7364 32.1679 18.3806 32.6506 17.7185 32.6506C17.0331 32.6506 16.6262 32.1548 16.4819 31.5846C16.2006 30.517 16.0055 29.4285 15.8985 28.3296C15.8008 27.2081 15.8767 26.0721 15.8767 24.9419L15.8635 24.9463ZM14.8529 12.6088C15.0294 13.2898 15.1796 13.9796 15.391 14.6504C15.4227 14.765 15.477 14.8722 15.5506 14.9656C15.6241 15.0591 15.7156 15.1369 15.8196 15.1946C15.9236 15.2523 16.038 15.2887 16.1562 15.3017C16.2745 15.3147 16.3941 15.304 16.5081 15.2702C16.6268 15.2369 16.7377 15.1805 16.8345 15.1042C16.9314 15.028 17.0122 14.9333 17.0723 14.8257C17.1325 14.7182 17.1708 14.5998 17.1851 14.4773C17.1994 14.3549 17.1894 14.2308 17.1556 14.1123C17.09 13.8119 16.9704 13.529 16.8931 13.2242C16.4221 11.4377 18.0131 9.87001 19.556 10.36C20.1831 10.5583 20.6746 10.2448 20.7912 9.7096C20.9167 9.13647 20.6031 8.70626 19.9396 8.54293C17.4006 7.89105 14.9346 9.89043 14.8529 12.6088Z" fill="white"/>
<path d="M14.8535 12.6088C14.9352 9.89043 17.4012 7.89105 19.9402 8.53563C20.6037 8.7048 20.9173 9.13501 20.7919 9.7023C20.6752 10.2375 20.1837 10.551 19.5566 10.3527C18.0137 9.86709 16.4227 11.4304 16.8937 13.2169C16.971 13.5086 17.0906 13.8002 17.1562 14.105C17.19 14.2236 17.2 14.3476 17.1857 14.47C17.1714 14.5925 17.1331 14.7109 17.073 14.8184C17.0128 14.926 16.932 15.0207 16.8352 15.0969C16.7383 15.1732 16.6274 15.2296 16.5087 15.2629C16.3947 15.2967 16.2751 15.3074 16.1569 15.2944C16.0386 15.2814 15.9242 15.245 15.8202 15.1873C15.7162 15.1296 15.6248 15.0518 15.5512 14.9583C15.4776 14.8649 15.4234 14.7578 15.3916 14.6431C15.1802 13.9796 15.03 13.2898 14.8535 12.6088Z" fill="black"/>
</g>
<defs>
<clipPath id="clip0_69_2149">
<rect width="56" height="56" fill="white"/>
</clipPath>
</defs>
</svg>
