<svg width="24" height="25" viewBox="0 0 24 25" fill="none" xmlns="http://www.w3.org/2000/svg">
<path fill-rule="evenodd" clip-rule="evenodd" d="M16 2.41895H8C4.68629 2.41895 2 5.10524 2 8.41895V16.4189C2 19.7327 4.68629 22.4189 8 22.4189H16C19.3137 22.4189 22 19.7327 22 16.4189V8.41895C22 5.10524 19.3137 2.41895 16 2.41895ZM4 8.41895C4 6.20981 5.79086 4.41895 8 4.41895H16C18.2091 4.41895 20 6.20981 20 8.41895V16.4189C20 18.6281 18.2091 20.4189 16 20.4189H8C5.79086 20.4189 4 18.6281 4 16.4189V8.41895ZM12 17.4189C9.23858 17.4189 7 15.1804 7 12.4189C7 9.65752 9.23858 7.41895 12 7.41895C14.7614 7.41895 17 9.65752 17 12.4189C17 15.1804 14.7614 17.4189 12 17.4189ZM12 15.4189C13.6569 15.4189 15 14.0758 15 12.4189C15 10.7621 13.6569 9.41895 12 9.41895C10.3431 9.41895 9 10.7621 9 12.4189C9 14.0758 10.3431 15.4189 12 15.4189ZM18 7.41895C18 7.97123 17.5523 8.41895 17 8.41895C16.4477 8.41895 16 7.97123 16 7.41895C16 6.86666 16.4477 6.41895 17 6.41895C17.5523 6.41895 18 6.86666 18 7.41895Z" fill="#F2EDE7"/>
</svg>
