<svg width="56" height="56" viewBox="0 0 56 56" fill="none" xmlns="http://www.w3.org/2000/svg">
<g clip-path="url(#clip0_69_2288)">
<path d="M56 22.2031V56H0V22.2031C0.0444644 22.3209 0.0819598 22.4412 0.112292 22.5633C0.882292 26.5106 1.64937 30.4587 2.41354 34.4079C2.61625 35.4565 3.10042 36.3285 3.99 36.9352C5.14792 37.7242 6.31021 38.5117 7.49875 39.2554C9.73486 40.6535 11.986 42.0326 14.2523 43.3927C15.3592 44.0562 15.9119 44.9779 15.8681 46.2729C15.8433 46.9817 15.8594 47.6933 15.8681 48.405C15.8827 50.12 17.0348 51.3027 18.7381 51.3217C20.561 51.3372 22.3835 51.3372 24.2054 51.3217C25.8548 51.3071 27.0244 50.2017 27.0521 48.5654C27.0871 46.4712 27.071 44.3742 27.0317 42.2785C27.0025 40.756 26.5271 39.3458 25.7498 38.0392C24.5729 36.0631 22.8331 34.6587 20.9665 33.3958C19.9359 32.6941 18.713 32.3298 17.4665 32.3531C17.1095 32.3445 16.7618 32.2375 16.4617 32.044C14.9061 31.0348 13.3612 30.0037 11.8271 28.9508C10.7012 28.175 9.59729 27.389 8.11125 27.8235C8.01937 27.5319 7.94646 27.3058 7.87937 27.0812C7.25229 25.0031 6.65146 22.9235 6.00833 20.8542C5.80894 20.2033 5.40376 19.6346 4.85365 19.2336C4.30355 18.8326 3.63819 18.6209 2.9575 18.6302C1.62458 18.6535 0.532292 19.53 0.0991667 20.9212C0.0719818 20.9869 0.0387849 21.0499 0 21.1094L0 0H56V21.1094C55.7258 20.6048 55.5363 20.0229 55.1629 19.6073C53.5981 17.8646 50.7281 18.5602 49.9931 20.8542C49.4098 22.6917 48.8848 24.5496 48.3335 26.3958C48.1877 26.8596 48.0419 27.3204 47.896 27.8133C46.6462 27.4969 45.6502 27.9373 44.6877 28.6081C43.0223 29.7583 41.3394 30.8826 39.639 31.9812C39.2758 32.2077 38.8592 32.334 38.4315 32.3473C37.2298 32.375 36.1215 32.6652 35.1342 33.3433C34.3685 33.8683 33.6087 34.4079 32.8985 35.0029C30.8569 36.7179 29.279 38.7946 29.0646 41.5173C28.8692 43.9965 28.9333 46.5062 29.0048 48.9985C29.0427 50.279 30.2896 51.291 31.6298 51.3115C33.5431 51.3406 35.4565 51.3406 37.3698 51.3115C38.9477 51.2881 40.0998 50.0952 40.1275 48.51C40.1406 47.7619 40.1508 47.0152 40.1275 46.2685C40.0867 44.9735 40.6467 44.0679 41.7448 43.3898C45.1194 41.3 48.4706 39.1723 51.8292 37.0563C52.2892 36.7735 52.6834 36.3956 52.9853 35.9479C53.2871 35.5001 53.4896 34.9929 53.5792 34.4604C54.0983 31.761 54.6131 29.0646 55.141 26.3652C55.4167 24.9769 55.7083 23.5915 56 22.2031ZM20.5435 23.9167H20.5625C20.5625 24.955 20.4808 26.0021 20.5873 27.0302C20.6725 27.8945 20.8874 28.7411 21.2246 29.5415C21.6402 30.504 22.5079 30.8758 23.5579 30.7854C24.694 30.6877 25.5427 30.1233 26.1669 29.1973C26.8202 28.226 27.0579 27.1381 27.0565 25.989C27.0565 25.114 27.0404 24.239 27.0681 23.364C27.0871 22.7806 27.4662 22.4219 27.9927 22.4219C28.5192 22.4219 28.8677 22.7763 28.9217 23.364C28.9363 23.5448 28.9217 23.7285 28.9217 23.9108C28.9363 24.8762 28.8837 25.8475 28.98 26.8042C29.136 28.3617 29.7529 29.7004 31.22 30.45C32.9379 31.3337 34.5596 30.6556 35.0904 28.8065C35.3003 28.0526 35.4169 27.2758 35.4375 26.4935C35.4944 24.6356 35.4448 22.7748 35.5104 20.9183C35.5294 20.3787 35.7335 19.8246 35.9479 19.3142C36.3854 18.2758 36.941 17.2856 37.3304 16.2327C37.956 14.5396 38.481 12.8246 38.1835 10.9608C37.5462 6.965 33.6452 3.57146 29.0515 5.00646C28.3704 5.22447 27.6383 5.22447 26.9573 5.00646C21.7073 3.37167 17.1865 8.05438 17.7975 12.9179C18.0892 15.2133 18.9831 17.3279 20.0754 19.3667C20.3392 19.8987 20.493 20.4786 20.5275 21.0715C20.5975 22.0121 20.5435 22.9644 20.5435 23.9167Z" fill="white"/>
<path d="M56.0009 22.2031C55.7093 23.5915 55.4176 24.974 55.142 26.3681C54.6141 29.0646 54.0993 31.764 53.5801 34.4633C53.4906 34.9959 53.2881 35.503 52.9862 35.9508C52.6844 36.3985 52.2902 36.7765 51.8301 37.0592C48.4759 39.1752 45.1218 41.3029 41.7457 43.3927C40.6476 44.0708 40.0876 44.9765 40.1284 46.2715C40.1532 47.0181 40.143 47.7648 40.1284 48.5129C40.1007 50.0981 38.9487 51.2838 37.3707 51.3144C35.4574 51.3416 33.5441 51.3416 31.6307 51.3144C30.2847 51.294 29.0378 50.2819 29.0057 49.0015C28.9343 46.5092 28.8701 44.0008 29.0655 41.5202C29.2799 38.7975 30.8534 36.7208 32.8995 35.0058C33.6097 34.4108 34.3695 33.8713 35.1351 33.3463C36.1224 32.6681 37.2307 32.3779 38.4324 32.3502C38.8602 32.3369 39.2768 32.2106 39.6399 31.9842C41.3384 30.8885 43.0184 29.7646 44.6799 28.6125C45.6468 27.9417 46.6428 27.5013 47.8882 27.8177C48.0428 27.3248 48.1901 26.864 48.3257 26.4002C48.877 24.5525 49.3976 22.6946 49.9853 20.8585C50.7145 18.5646 53.5903 17.869 55.1551 19.6117C55.5284 20.0273 55.718 20.6092 55.9922 21.1138L56.0009 22.2031ZM30.8855 45.2958H30.8082C30.8082 46.3167 30.8009 47.3375 30.8082 48.3583C30.8082 49.1385 31.132 49.4535 31.9064 49.4565C33.6564 49.4642 35.4064 49.4642 37.1564 49.4565C37.9453 49.4565 38.2647 49.1181 38.2705 48.3073C38.2705 47.5971 38.2793 46.8854 38.2705 46.1752C38.2501 44.2546 39.0945 42.8444 40.7191 41.8367C44.0732 39.7527 47.4114 37.6352 50.7568 35.5367C51.0086 35.3883 51.2257 35.1875 51.3932 34.948C51.5608 34.7085 51.675 34.4358 51.728 34.1483C52.5155 30.0932 53.3021 26.0376 54.0876 21.9815C54.1279 21.7866 54.1279 21.5856 54.0876 21.3908C54.034 21.1484 53.9019 20.9304 53.7118 20.7706C53.5217 20.6109 53.2842 20.5182 53.0362 20.5071C52.4528 20.4808 51.9395 20.8454 51.747 21.4871C51.0266 23.8729 50.3168 26.2617 49.6178 28.6533C49.5754 28.823 49.5903 29.0019 49.6601 29.1623C50.4199 30.819 50.0203 32.3356 48.5139 33.3638C47.2509 34.2256 45.9734 35.0685 44.7032 35.9202C43.8846 36.4676 43.067 37.014 42.2503 37.5594C42.0905 37.6845 41.8933 37.7525 41.6903 37.7525C41.4873 37.7525 41.2902 37.6845 41.1303 37.5594C40.9669 37.4528 40.8466 37.2918 40.7907 37.1048C40.7349 36.9179 40.7473 36.7172 40.8255 36.5385C40.9525 36.2809 41.1477 36.063 41.3899 35.9085C43.3032 34.6092 45.2297 33.3302 47.1503 32.0425C47.3527 31.9171 47.5475 31.7798 47.7337 31.6313C48.1916 31.2375 48.317 30.555 48.0253 30.1029C47.8569 29.8507 47.5998 29.671 47.305 29.5997C47.0102 29.5283 46.6994 29.5705 46.4343 29.7179C46.3071 29.7883 46.1839 29.8657 46.0653 29.9498C44.2803 31.1471 42.488 32.3327 40.7147 33.546C40.0278 34.0156 39.3103 34.2854 38.4674 34.2373C37.6217 34.192 36.7864 34.4409 36.1034 34.9417C35.4632 35.3923 34.8216 35.8429 34.2193 36.3417C32.4999 37.765 31.1772 39.4683 30.9234 41.755C30.7791 42.9173 30.8855 44.1117 30.8855 45.2958Z" fill="black"/>
<path d="M0 21.1094C0.0387057 21.0503 0.071901 20.9878 0.0991667 20.9227C0.536667 19.5314 1.62458 18.655 2.9575 18.6317C3.63801 18.6222 4.30322 18.8337 4.85331 19.2345C5.40339 19.6352 5.80868 20.2035 6.00833 20.8541C6.65146 22.9221 7.25229 25.0016 7.87208 27.0769C7.93917 27.3014 8.01792 27.526 8.10396 27.8191C9.59 27.3816 10.694 28.1706 11.8198 28.9464C13.3501 29.9994 14.8949 31.0304 16.4544 32.0396C16.7545 32.2331 17.1022 32.3401 17.4592 32.3487C18.7057 32.3254 19.9287 32.6898 20.9592 33.3914C22.8302 34.6544 24.5656 36.0587 25.7425 38.0348C26.5198 39.3473 26.9952 40.7516 27.0244 42.2741C27.0637 44.3698 27.0798 46.4669 27.0448 48.561C27.0171 50.1973 25.8475 51.3027 24.1981 51.3173C22.3772 51.3348 20.5547 51.3348 18.7308 51.3173C17.026 51.2998 15.8754 50.1171 15.8608 48.4006C15.8608 47.6889 15.8404 46.9773 15.8608 46.2685C15.9046 44.9735 15.3519 44.0519 14.245 43.3883C11.9807 42.0272 9.72951 40.6481 7.49146 39.251C6.30292 38.5073 5.14062 37.7198 3.98271 36.9308C3.09312 36.3242 2.60896 35.4521 2.40625 34.4035C1.64986 30.4573 0.885208 26.5105 0.112292 22.5633C0.0819598 22.4411 0.0444644 22.3209 0 22.2031L0 21.1094ZM25.1927 45.306C25.1927 44.5769 25.181 43.8477 25.1927 43.1185C25.2394 40.7371 24.3585 38.7348 22.6392 37.1248C21.805 36.3446 20.8702 35.6664 19.9558 34.9796C19.2548 34.4412 18.3821 34.1759 17.5 34.2329C16.6965 34.2781 16.0096 34.0229 15.3533 33.5752C13.5625 32.3546 11.7571 31.1573 9.9575 29.9527C9.14229 29.4073 8.41313 29.4612 7.99604 30.0985C7.60958 30.6819 7.86625 31.3775 8.66979 31.9156C10.6969 33.2748 12.7269 34.6281 14.7496 35.9989C15.2673 36.3475 15.3869 36.925 15.0719 37.3669C14.7569 37.8087 14.2362 37.8846 13.7185 37.5404C11.5646 36.1083 9.40771 34.6821 7.27562 33.2179C6.15562 32.4464 5.60437 30.9896 6.13375 29.7981C6.48229 29.0135 6.33062 28.3777 6.11187 27.6733C6.04042 27.4473 5.97479 27.2198 5.90625 26.9937C5.36083 25.1635 4.82417 23.3304 4.26417 21.5031C4.04104 20.7739 3.40375 20.3933 2.765 20.5523C2.09854 20.72 1.78062 21.3048 1.93229 22.0894C2.71007 26.093 3.48785 30.0951 4.26562 34.0958C4.30828 34.3753 4.40944 34.6427 4.56248 34.8804C4.71552 35.1181 4.917 35.3209 5.15375 35.4754C6.37292 36.2746 7.57604 37.0971 8.80979 37.8685C11.0337 39.2583 13.284 40.6029 15.5065 41.9927C16.9794 42.9129 17.7129 44.2735 17.7362 46.0089C17.7479 46.7921 17.7362 47.5766 17.7362 48.3598C17.7362 49.1429 18.076 49.4608 18.8387 49.4637C20.5887 49.4715 22.3387 49.4715 24.0887 49.4637C24.8704 49.4637 25.1898 49.1487 25.1985 48.3758C25.2 47.3477 25.1927 46.3269 25.1927 45.306Z" fill="black"/>
<path d="M20.544 23.9167C20.544 22.9702 20.598 22.0208 20.5251 21.0758C20.4906 20.483 20.3368 19.9031 20.073 19.3711C18.9807 17.3294 18.0824 15.2177 17.7951 12.9223C17.1884 8.05876 21.7034 3.37606 26.9549 5.01085C27.6359 5.22886 28.368 5.22886 29.049 5.01085C33.6428 3.57585 37.5438 6.96939 38.1811 10.9652C38.4728 12.829 37.9536 14.544 37.328 16.2371C36.9386 17.29 36.3786 18.2788 35.9455 19.3186C35.734 19.829 35.5299 20.3831 35.508 20.9227C35.4424 22.7792 35.492 24.64 35.4351 26.4979C35.4191 27.2791 35.3074 28.0554 35.1026 28.8094C34.5717 30.6586 32.9501 31.3367 31.2322 30.4529C29.7651 29.6961 29.1482 28.3573 28.9922 26.8071C28.8959 25.8504 28.9484 24.8792 28.9338 23.9138C28.9338 23.7315 28.9411 23.5477 28.9338 23.3669C28.8842 22.7836 28.5313 22.4248 28.0049 22.4248C27.4784 22.4248 27.0992 22.7792 27.0803 23.3669C27.0526 24.2419 27.0672 25.1169 27.0686 25.9919C27.0686 27.1454 26.8324 28.2333 26.179 29.2002C25.5549 30.1263 24.7061 30.6906 23.5701 30.7883C22.5157 30.8788 21.648 30.5069 21.2367 29.5444C20.8995 28.744 20.6847 27.8975 20.5995 27.0331C20.493 26.005 20.5747 24.9579 20.5747 23.9196L20.544 23.9167ZM22.4092 23.7606H22.4165C22.4165 24.7261 22.4034 25.6915 22.4165 26.6569C22.402 27.0756 22.4511 27.494 22.5624 27.8979C22.6863 28.264 22.8992 28.7408 23.2011 28.8721C23.6751 29.0748 24.1578 28.7656 24.4786 28.3558C24.6795 28.1218 24.8286 27.848 24.9161 27.5523C25.0511 26.9888 25.1355 26.4144 25.1684 25.8358C25.2209 24.8558 25.148 23.8642 25.2486 22.89C25.3857 21.5775 26.5509 20.5917 27.8736 20.5567C29.5259 20.5086 30.7495 21.6986 30.7903 23.4194C30.818 24.4563 30.7801 25.4975 30.8282 26.5329C30.8705 27.3963 31.1461 28.1881 31.9074 28.7C32.6045 29.1667 33.1353 28.98 33.3511 28.175C33.4787 27.699 33.5482 27.2094 33.5582 26.7167C33.5932 24.8033 33.6005 22.8915 33.6005 20.9781C33.5948 20.0624 33.8389 19.1625 34.3063 18.375C35.2032 16.8408 35.7953 15.1813 36.2328 13.4633C37.2142 9.62356 33.7434 5.37689 29.3961 6.82939C28.4176 7.15606 27.4245 7.09772 26.4401 6.79147C22.437 5.54168 19.1834 9.18751 19.6486 12.7094C19.9184 14.7642 20.7117 16.6717 21.7428 18.4698C22.1891 19.2261 22.4206 20.0898 22.4122 20.9679C22.4005 21.8969 22.4092 22.8258 22.4092 23.7548V23.7606Z" fill="black"/>
<path d="M30.8855 45.2958C30.8855 44.1117 30.779 42.9173 30.9088 41.7477C31.1626 39.461 32.4853 37.7577 34.2046 36.3344C34.8069 35.8356 35.4486 35.385 36.0888 34.9344C36.7718 34.4336 37.6071 34.1847 38.4528 34.23C39.2957 34.2781 40.0132 34.0083 40.7001 33.5388C42.4734 32.3254 44.2657 31.1398 46.0507 29.9425C46.1693 29.8584 46.2924 29.781 46.4196 29.7106C46.6847 29.5633 46.9956 29.521 47.2904 29.5924C47.5851 29.6637 47.8423 29.8434 48.0107 30.0956C48.3023 30.5477 48.1828 31.2302 47.719 31.624C47.5329 31.7725 47.3381 31.9098 47.1357 32.0352C45.2151 33.3229 43.2886 34.6019 41.3753 35.9013C41.1331 36.0557 40.9379 36.2736 40.8109 36.5313C40.7326 36.71 40.7203 36.9106 40.7761 37.0976C40.8319 37.2845 40.9523 37.4456 41.1157 37.5521C41.2755 37.6772 41.4727 37.7452 41.6757 37.7452C41.8787 37.7452 42.0758 37.6772 42.2357 37.5521C43.0543 37.0076 43.8719 36.4613 44.6886 35.9129C45.9588 35.0613 47.2363 34.2183 48.4992 33.3565C50.0057 32.3283 50.4053 30.8117 49.6455 29.155C49.5757 28.9947 49.5608 28.8157 49.6032 28.646C50.3032 26.2544 51.0129 23.8656 51.7324 21.4798C51.9249 20.8381 52.4353 20.4736 53.0215 20.4998C53.2696 20.5109 53.5071 20.6036 53.6971 20.7633C53.8872 20.9231 54.0193 21.1411 54.073 21.3836C54.1133 21.5784 54.1133 21.7794 54.073 21.9742C53.2952 26.0313 52.5087 30.0869 51.7134 34.1411C51.6603 34.4285 51.5461 34.7012 51.3786 34.9407C51.211 35.1802 50.994 35.381 50.7421 35.5294C47.3967 37.6279 44.0601 39.7454 40.7044 41.8294C39.0798 42.8371 38.2355 44.2473 38.2559 46.1679C38.2646 46.8781 38.2559 47.5898 38.2559 48.3C38.2559 49.1108 37.9307 49.4463 37.1417 49.4492C35.3917 49.457 33.6417 49.457 31.8917 49.4492C31.1173 49.4492 30.8009 49.1313 30.7936 48.351C30.7834 47.3302 30.7936 46.3094 30.7936 45.2885L30.8855 45.2958Z" fill="white"/>
<path d="M25.1926 45.306C25.1926 46.3269 25.1999 47.3477 25.1926 48.3685C25.1839 49.1415 24.8645 49.4535 24.0828 49.4565C22.3328 49.4623 20.5828 49.4623 18.8328 49.4565C18.0701 49.4565 17.7391 49.1167 17.7303 48.3525C17.7216 47.5883 17.7376 46.7848 17.7303 46.0017C17.707 44.2662 16.9735 42.9056 15.5005 41.9854C13.2708 40.5942 11.022 39.2496 8.79805 37.8598C7.5643 37.0883 6.36117 36.2658 5.14201 35.4667C4.90525 35.3121 4.70378 35.1094 4.55074 34.8716C4.3977 34.6339 4.29654 34.3666 4.25388 34.0871C3.48485 30.0835 2.70951 26.0813 1.92784 22.0806C1.78201 21.296 2.09409 20.7112 2.76055 20.5435C3.3993 20.3846 4.03659 20.7652 4.25972 21.4944C4.81972 23.3217 5.35638 25.1548 5.9018 26.985C5.97034 27.211 6.03597 27.4385 6.10742 27.6646C6.32617 28.369 6.47784 29.0048 6.1293 29.7894C5.59992 30.9808 6.15117 32.4377 7.27117 33.2092C9.40326 34.6675 11.5601 36.0996 13.7141 37.5317C14.2318 37.8758 14.7597 37.7913 15.0674 37.3581C15.3751 36.925 15.2628 36.3373 14.7451 35.9902C12.7224 34.6237 10.6924 33.2704 8.66534 31.9069C7.8618 31.3687 7.60513 30.6746 7.99159 30.0898C8.40867 29.4569 9.13784 29.4029 9.95305 29.944C11.7555 31.1485 13.561 32.3458 15.3489 33.5665C16.0051 34.0142 16.692 34.2694 17.4955 34.2242C18.3786 34.1664 19.2525 34.4318 19.9543 34.9708C20.8687 35.6606 21.8035 36.3358 22.6376 37.116C24.357 38.7202 25.2378 40.7283 25.1912 43.1098C25.181 43.8477 25.1926 44.5769 25.1926 45.306Z" fill="white"/>
<path d="M22.409 23.7548C22.409 22.8258 22.4002 21.8969 22.409 20.9679C22.4174 20.0898 22.1859 19.226 21.7396 18.4698C20.7086 16.6717 19.9152 14.7642 19.6454 12.7094C19.1831 9.18749 22.4367 5.54165 26.4398 6.78999C27.4242 7.09624 28.4173 7.15457 29.3959 6.8279C33.7431 5.36957 37.214 9.62207 36.2325 13.4619C35.795 15.1798 35.2029 16.8394 34.3061 18.3735C33.8434 19.1619 33.604 20.0612 33.6134 20.9752C33.6134 22.8885 33.6061 24.8004 33.5711 26.7137C33.561 27.2064 33.4915 27.6961 33.364 28.1721C33.1481 28.9771 32.6173 29.1637 31.9202 28.6971C31.159 28.1852 30.8834 27.3933 30.8411 26.53C30.7929 25.4946 30.8309 24.4533 30.8031 23.4164C30.7579 21.6956 29.5344 20.4998 27.8865 20.5537C26.574 20.5917 25.4073 21.5746 25.2615 22.8871C25.1609 23.8612 25.2338 24.8529 25.1813 25.8329C25.1511 26.4102 25.0696 26.9836 24.9377 27.5464C24.8502 27.8421 24.7011 28.116 24.5002 28.35C24.1794 28.7598 23.6967 29.0689 23.2227 28.8662C22.9209 28.735 22.7079 28.2581 22.584 27.8921C22.4728 27.4882 22.4236 27.0697 22.4381 26.651C22.4177 25.6856 22.4381 24.7202 22.4381 23.7548H22.409ZM21.4713 12.4498C21.5661 12.8085 21.7031 13.4706 21.9088 14.1021C21.9912 14.3189 22.1549 14.4951 22.3651 14.5931C22.5754 14.6911 22.8155 14.7033 23.0346 14.6271C23.2537 14.5572 23.4387 14.4078 23.5531 14.2083C23.6676 14.0089 23.7032 13.7738 23.6529 13.5494C23.6048 13.3 23.5173 13.0579 23.4488 12.8202C23.0113 11.2714 23.8746 10.2244 25.4467 10.3862C25.6656 10.4118 25.8866 10.3601 26.0714 10.24C26.2562 10.1199 26.3933 9.93898 26.4588 9.72853C26.532 9.50791 26.5168 9.2675 26.4165 9.05782C26.3161 8.84815 26.1384 8.68553 25.9206 8.60415C25.6476 8.50374 25.361 8.44475 25.0704 8.42915C23.0944 8.32853 21.464 10.0173 21.4713 12.4498Z" fill="white"/>
<path d="M21.4707 12.4498C21.4707 10.0173 23.0938 8.32854 25.0699 8.42916C25.3604 8.44476 25.647 8.50375 25.9201 8.60416C26.1372 8.68441 26.315 8.84538 26.4163 9.0535C26.5177 9.26162 26.5348 9.50083 26.464 9.72125C26.3985 9.9317 26.2615 10.1126 26.0767 10.2327C25.8919 10.3528 25.6709 10.4046 25.452 10.379C23.8799 10.2171 23.0195 11.2642 23.454 12.8129C23.5226 13.0579 23.6101 13.3 23.6582 13.5421C23.7105 13.7674 23.6761 14.0041 23.5618 14.2051C23.4475 14.4062 23.2617 14.5568 23.0413 14.6271C22.8223 14.7033 22.5821 14.6911 22.3718 14.5931C22.1616 14.4951 21.9979 14.3189 21.9155 14.1021C21.7026 13.4677 21.5655 12.8085 21.4707 12.4498Z" fill="black"/>
</g>
<defs>
<clipPath id="clip0_69_2288">
<rect width="56" height="56" fill="white"/>
</clipPath>
</defs>
</svg>
