<svg width="512" height="232" viewBox="0 0 512 232" fill="none" xmlns="http://www.w3.org/2000/svg">
<path d="M195.512 98.3522C209.08 99.0557 222.183 102.498 235.436 105.01C249.167 107.623 263.074 108.39 276.893 109.571C288.287 110.55 299.782 110.5 311.226 110.902C314.878 123.909 318.533 136.89 322.193 149.846C322.872 152.258 323.274 154.946 326.779 154.72C331.804 157.321 336.263 160.688 341.188 163.439C378.247 184.18 419.716 172.622 446.952 143.452C450.721 144.042 450.595 140.701 451.386 138.64C455.746 127.246 457.932 115.274 460.18 103.34C469.407 103.016 478.564 105.048 486.788 109.244C499.978 116.153 505.908 127.924 508.144 141.982C510.506 156.554 513.169 171.052 510.732 186.014C508.219 201.353 499.903 212.144 486.059 218.412C457.291 231.44 426.927 233.299 395.948 230.498C385.144 229.53 374.278 230.083 363.424 229.241C342.834 227.633 322.118 227.809 301.528 226.239C262.496 223.274 223.414 223.463 184.357 224.179C158.905 224.656 133.428 225.649 108.002 226.855C82.5752 228.061 56.9853 228.236 32.1366 222.269C5.08943 215.774 2.87843 206.327 1.03174 186.227C-0.224517 172.145 -0.526024 157.798 5.71756 144.381C12.6898 129.369 24.0086 119.369 39.8877 114.57C40.3391 115.484 40.7009 116.439 40.9681 117.422C43.6843 134.087 47.448 150.564 52.2367 166.755C52.8774 168.878 53.1286 170.888 55.8673 171.052C56.5835 171.47 57.2679 171.94 57.9149 172.459C78.2411 191.303 101.884 196.466 128.466 189.544C141.179 186.227 153.428 181.717 164.144 173.815C164.569 173.816 164.992 173.756 165.4 173.64C168.918 175.373 169.169 172.145 170.023 170.361C174.634 160.311 177.661 149.733 180.475 139.055C184.143 124.997 182.636 108.968 195.512 98.3522ZM247.509 122.384C234.482 121.128 222.095 124.294 210.135 129.733C199.131 134.758 190.098 142.711 191.731 157.735C193.214 171.378 194.52 174.418 211.731 180.448C229.946 186.818 248.966 189.242 268.262 186.202C278.149 184.644 287.835 182.107 296.252 176.152C313.337 164.079 311.766 143.15 293.274 133.439C278.928 125.814 264.079 121.09 247.509 122.334V122.384Z" fill="#EAD1B3"/>
<path d="M195.515 98.3522C182.639 109.018 184.096 125.048 180.44 139.105C177.626 149.783 174.599 160.361 169.988 170.411C169.172 172.195 168.883 175.436 165.365 173.69C172.968 156.556 178.278 138.495 181.156 119.972C183.82 103.968 186.948 87.9881 186.671 71.6693C186.42 57.2098 178.418 46.0166 166.182 43.68C155.541 41.6574 145.516 44.6096 135.378 49.0693C142.2 55.2124 149.285 59.7851 156.546 64.6594C152.564 67.3478 150.793 63.265 148.079 63.1268C136.71 54.0064 125.906 44.082 111.874 38.9062C96.1329 33.1023 80.4674 32.1601 65.1034 39.8735C49.4379 47.6749 39.6768 67.8252 42.1893 85.865C42.5411 88.4906 43.9858 89.2066 46.1089 89.9353C50.5183 91.4679 53.2067 94.0809 53.8977 99.3446C54.6514 105.048 56.5232 110.777 61.3095 114.822C62.0507 115.45 63.4326 115.952 62.6537 117.158C61.8749 118.364 60.4427 118.025 59.4503 117.095C58.3729 116.113 57.385 115.037 56.4981 113.879C53.5115 109.833 51.6596 105.062 51.1339 100.061C50.7067 95.5382 48.2319 92.2216 44.2245 92.8372C40.217 93.4528 42.2773 98.0758 42.5034 100.664C43.8024 114.772 45.9588 128.789 48.9606 142.635C50.9957 152.195 55.0157 161.253 55.87 171.077C53.1313 170.913 52.8801 168.903 52.2394 166.78C47.4968 150.582 43.7793 134.101 41.109 117.435C40.8418 116.451 40.4799 115.496 40.0286 114.583C39.903 108.942 39.815 103.277 39.6266 97.6487C39.4633 92.9628 37.5538 90.3498 32.2524 90.7267C26.9477 91.1186 21.6144 90.789 16.3984 89.7468C21.4235 86.3926 27.152 86.6564 32.2273 87.7117C39.0487 89.1564 39.5889 85.7771 39.7648 80.8526C40.0663 70.3 41.3979 59.9485 47.8048 51.0793C56.4227 39.1826 68.2441 32.9264 82.8543 31.8335C98.6264 30.3872 114.409 34.4926 127.477 43.4413C131.308 46.0543 134.512 45.9538 138.557 44.5217C146.634 41.7328 154.775 39.3208 163.606 40.5016C177.501 42.3483 187.161 51.8833 189.159 65.7021C190.415 74.4959 189.347 83.1515 188.455 91.8573C188.254 93.8045 186.885 96.2417 189.711 97.2216C192.324 98.1009 193.48 95.7894 194.422 94.0181C196.219 90.7267 197.751 87.2971 199.447 83.9681C199.975 82.8626 200.327 81.242 201.96 81.7947C203.593 82.3475 203.003 83.9555 202.487 84.9982C200.138 89.4202 197.802 93.8548 195.515 98.3522Z" fill="#CDCDCD"/>
<path d="M326.803 154.708C323.299 154.934 322.897 152.195 322.218 149.833C318.55 136.844 314.894 123.863 311.251 110.89C311.339 102.636 308.349 95.5256 303.626 88.88C301.231 85.2244 299.021 81.4508 297.005 77.5737C296.49 76.6567 295.95 75.5386 297.219 74.9105C298.488 74.2823 299.103 75.2999 299.656 76.1667C302.133 80.6506 305.126 84.8289 308.575 88.6162C308.575 82.9254 308.349 77.222 308.575 71.5563C309.505 51.6823 325.572 31.846 343.914 27.5873C353.964 25.2633 363.046 27.7758 371.074 33.8686C374.73 36.6198 377.632 36.2806 381.124 33.9817C387.405 29.8486 393.85 25.9919 400.169 21.9216C414.063 12.9645 432.392 13.3665 445.394 23.4668C453.786 29.9868 457.391 39.5343 458.836 49.5844C460.839 62.3615 461.433 75.32 460.607 88.2268C460.431 90.6136 458.773 94.6965 461.964 95.2869C463.748 95.597 465.585 95.3126 467.192 94.4774C468.799 93.6422 470.087 92.3024 470.858 90.6639C473.295 85.3751 475.531 79.9857 477.843 74.6215C479.79 70.1116 491.913 64.672 496.511 66.2549C497.39 66.5564 497.968 67.0463 497.767 68.0262C497.685 68.4454 497.445 68.817 497.096 69.0647C496.748 69.3124 496.318 69.4173 495.895 69.3578C482.428 68.8302 478.421 78.3023 475.381 88.7544C474.797 91.2201 473.467 93.4457 471.572 95.1274C469.676 96.8091 467.308 97.8651 464.791 98.1512C461.499 98.6411 459.766 99.935 460.155 103.377C457.894 115.312 455.708 127.246 451.361 138.678C450.57 140.738 450.758 144.08 446.927 143.489C450.331 131.492 454.615 119.746 456.261 107.284C457.203 100.186 457.178 99.8345 450.231 99.5833C448.836 99.5833 446.776 100.576 446.198 97.6235C447.793 97.1838 449.389 96.2668 450.909 96.3673C457.115 96.92 457.944 93.5658 457.994 88.3524C458.15 77.3011 457.689 66.2498 456.612 55.2501C453.183 21.3312 429.678 12.9143 406.023 22.3111C396.425 26.0798 388.109 33.1651 378.825 38.969C387.305 45.5895 394.742 52.6119 405.206 54.4461C399.365 57.951 394.842 54.4461 390.433 51.4059C382.694 46.1045 375.358 40.0996 367.468 35.0746C355.949 27.7883 344.052 28.0773 332.708 35.6399C318.186 45.3257 311.276 59.6721 311.138 76.5938C310.924 102.749 317.997 127.698 326.138 152.321L326.803 154.708Z" fill="#CDCDCD"/>
<path d="M292.975 3.63058C295.035 6.38178 294.721 7.80136 294.055 9.13299C290.546 16.2266 287.008 23.3077 283.44 30.3763C282.887 31.4692 282.184 32.8888 280.764 32.4365C279.345 31.9843 279.784 30.4139 280.287 29.2959C284.106 20.8664 289.671 13.3917 292.975 3.63058Z" fill="#FBF9F4"/>
<path d="M242.356 0C243.675 9.88673 246.539 19.5976 245.396 30.5019C241.351 24.5221 239.554 6.8089 242.356 0Z" fill="#FBF9F4"/>
<path d="M196.555 14.7233C204.959 20.5523 210.085 29.2833 217.233 37.1726C211.479 36.0922 199.469 23.1151 196.555 14.7233Z" fill="#FBF9F4"/>
<path d="M148.039 63.0766C150.752 63.2147 152.524 67.2976 156.506 64.6092C149.245 59.7349 142.159 55.1621 135.338 49.0191C145.476 44.5594 155.501 41.6072 166.141 43.6297C178.377 45.9664 186.38 57.1596 186.631 71.6191C186.907 87.9504 183.779 103.917 181.116 119.922C178.23 138.446 172.912 156.507 165.3 173.64C164.891 173.756 164.468 173.816 164.043 173.815C162.95 171.228 161.33 171.303 159.018 172.396C154.282 174.506 149.483 177.283 144.697 178.288C134.647 180.411 124.195 182.659 113.755 181.164C99.9367 179.18 87.2737 174.506 78.1658 163.137C73.4423 157.245 71.8845 150.148 74.3971 143.326C76.3317 138.201 76.5075 133.892 74.5352 129.068C70.3268 118.741 67.362 108.138 68.568 96.8196C69.8243 84.8851 72.0981 73.3025 82.6632 65.6016C96.482 55.5516 112.273 59.3204 127.285 60.4761C134.144 61.0163 141.066 62.7122 148.039 63.0766ZM118.818 97.6989C121.959 97.3723 123.692 95.5005 123.567 92.7744C123.579 92.1451 123.46 91.5201 123.216 90.9396C122.973 90.3592 122.61 89.8362 122.152 89.4043C121.694 88.9724 121.151 88.6412 120.557 88.4319C119.964 88.2226 119.333 88.1399 118.705 88.1891C115.389 88.2519 113.68 90.174 113.906 93.3523C114.082 96.2919 116.168 97.5607 118.818 97.6989ZM174.345 93.7292C174.345 90.7644 172.661 88.8675 169.935 88.7042C169.26 88.607 168.572 88.6649 167.923 88.8737C167.274 89.0824 166.681 89.4365 166.189 89.9089C165.697 90.3812 165.32 90.9595 165.085 91.5997C164.85 92.24 164.765 92.9253 164.835 93.6035C164.787 94.2307 164.874 94.8609 165.09 95.4514C165.307 96.042 165.647 96.5793 166.089 97.0271C166.531 97.4748 167.064 97.8225 167.651 98.0468C168.239 98.2711 168.868 98.3666 169.496 98.3271C172.297 98.3522 174.018 96.6186 174.332 93.7292H174.345ZM153.805 103.226C153.328 100.237 151.519 98.4904 148.78 98.6286C148.122 98.6322 147.472 98.7704 146.87 99.0345C146.267 99.2986 145.725 99.6831 145.277 100.164C144.829 100.646 144.484 101.213 144.263 101.833C144.042 102.453 143.95 103.111 143.993 103.767C144.036 104.423 144.213 105.064 144.512 105.65C144.812 106.235 145.228 106.753 145.735 107.172C146.242 107.591 146.83 107.902 147.461 108.085C148.093 108.269 148.755 108.321 149.408 108.239C152.184 108.05 153.503 105.89 153.792 103.226H153.805Z" fill="#FEFEFE"/>
<path d="M247.51 122.334C264.08 121.078 278.916 125.814 293.25 133.364C311.742 143.113 313.35 164.042 296.228 176.077C287.811 182.019 278.125 184.556 268.238 186.127C248.967 189.154 229.948 186.742 211.707 180.373C194.496 174.343 193.19 171.303 191.707 157.66C190.074 142.585 199.107 134.658 210.111 129.658C222.096 124.244 234.483 121.141 247.51 122.334Z" fill="#E7B38F"/>
<path d="M148.042 63.0766C141.07 62.7122 134.148 61.0163 127.339 60.4761C112.327 59.2952 96.5485 55.5265 82.7172 65.6016C72.1521 73.3025 69.9034 84.8851 68.622 96.8196C67.3657 108.126 70.3807 118.741 74.5892 129.068C76.5615 133.892 76.3856 138.201 74.451 143.326C71.8757 150.148 73.4837 157.245 78.2197 163.137C87.3276 174.506 100.003 179.18 113.809 181.164C124.249 182.659 134.651 180.411 144.751 178.288C149.537 177.283 154.336 174.519 159.072 172.396C161.396 171.353 163.017 171.228 164.097 173.815C153.381 181.717 141.133 186.227 128.42 189.544C101.9 196.466 78.1695 191.365 57.8684 172.459C57.2214 171.94 56.537 171.47 55.8207 171.052C54.9665 161.228 50.9465 152.208 48.9113 142.61C45.9096 128.763 43.7532 114.747 42.4542 100.639C42.228 98.0507 40.1427 93.4528 44.1752 92.8121C48.2078 92.1714 50.6575 95.5131 51.0846 100.036C51.6103 105.037 53.4622 109.808 56.4489 113.854C57.3358 115.012 58.3237 116.088 59.4011 117.07C60.3935 118 61.7126 118.515 62.6045 117.133C63.4965 115.751 62.0015 115.425 61.2603 114.797C56.474 110.751 54.6022 105.023 53.8484 99.3195C53.1575 94.0558 50.4691 91.4428 46.0596 89.9102C43.9365 89.1815 42.4919 88.4655 42.1401 85.8399C39.6904 67.8001 49.439 47.6498 65.0668 39.7982C80.4056 32.0848 96.0963 33.027 111.837 38.8308C125.869 44.0317 136.673 53.9562 148.042 63.0766Z" fill="#FBF9F4"/>
<path d="M326.804 154.708L326.238 152.359C327.689 152.347 329.136 152.511 330.547 152.848C342.218 157.069 354.479 157.949 366.627 158.489C382.405 159.193 398.033 157.874 413.297 152.635C423.874 149.004 431.437 143.477 434.452 132.158C437.329 121.329 440.62 110.488 441.223 99.3823C441.977 85.7142 443.145 71.8452 440.306 58.2651C438.698 50.5768 430.834 47.0593 423.774 50.4888C417.895 53.3405 411.902 55.1495 405.307 54.4335C394.792 52.5993 387.355 45.6397 378.926 38.9564C388.209 33.1525 396.513 26.1049 406.124 22.2985C429.779 12.9017 453.283 21.306 456.713 55.2375C457.759 66.2264 458.191 77.2651 458.007 88.3021C458.007 93.5156 457.127 96.8698 450.922 96.317C449.402 96.1788 447.806 97.0959 446.211 97.5733C446.788 100.525 448.849 99.4828 450.243 99.533C457.19 99.7843 457.215 100.136 456.273 107.234C454.628 119.696 450.344 131.442 446.939 143.439C419.704 172.609 378.235 184.167 341.175 163.426C336.288 160.675 331.791 157.308 326.804 154.708Z" fill="#FBF9F4"/>
<path d="M405.307 54.3833C411.903 55.0993 417.87 53.2903 423.774 50.4386C430.835 47.0091 438.699 50.5266 440.307 58.2149C443.146 71.795 441.978 85.664 441.224 99.3321C440.621 110.437 437.329 121.279 434.453 132.108C431.438 143.414 423.875 148.954 413.297 152.585C398.046 157.823 382.406 159.142 366.627 158.439C354.479 157.899 342.218 157.019 330.548 152.798C329.137 152.461 327.69 152.297 326.239 152.308C318.098 127.686 311.026 102.737 311.239 76.5813C311.377 59.6595 318.287 45.3131 332.809 35.6274C344.115 28.0899 356.05 27.7758 367.57 35.0621C375.484 40.0871 382.795 46.0417 390.534 51.3934C394.943 54.3833 399.466 57.9385 405.307 54.3833ZM397.267 90.5131C396.941 87.7996 395.559 85.8901 392.607 85.7394C389.265 85.5761 387.682 87.4981 387.582 90.7016C387.481 93.905 389.717 95.1864 392.355 95.2869C395.283 95.4377 396.79 93.4277 397.267 90.5634V90.5131ZM367.18 105.5C369.492 104.659 371.74 103.628 371.514 100.4C371.301 97.41 369.68 95.7266 366.678 95.8397C363.675 95.9527 362.105 97.7492 362.143 100.727C362.18 103.704 364.266 105.023 367.18 105.5ZM341.653 94.7091C342.263 94.7336 342.871 94.632 343.44 94.4106C344.009 94.1892 344.526 93.8528 344.959 93.4223C345.392 92.9919 345.731 92.4768 345.955 91.9092C346.18 91.3416 346.285 90.7337 346.263 90.1237C346.353 89.5004 346.306 88.865 346.125 88.2619C345.943 87.6588 345.632 87.1027 345.213 86.6324C344.795 86.1621 344.278 85.789 343.7 85.5393C343.122 85.2896 342.496 85.1692 341.867 85.1866C341.188 85.0904 340.497 85.1478 339.844 85.3547C339.191 85.5615 338.592 85.9125 338.093 86.3816C337.594 86.8507 337.206 87.4261 336.959 88.0651C336.712 88.7041 336.612 89.3905 336.666 90.0735C336.691 92.8247 338.462 94.5834 341.653 94.7091Z" fill="#FEFEFE"/>
<path d="M118.821 97.6989C116.182 97.5608 114.097 96.2919 113.909 93.3523C113.695 90.174 115.391 88.2519 118.707 88.1891C119.335 88.1399 119.966 88.2226 120.56 88.4319C121.153 88.6412 121.697 88.9724 122.155 89.4043C122.612 89.8362 122.975 90.3592 123.219 90.9397C123.462 91.5201 123.582 92.1451 123.569 92.7744C123.682 95.5005 121.949 97.3723 118.821 97.6989Z" fill="#2E2D43"/>
<path d="M174.33 93.7292C174.016 96.6186 172.295 98.3145 169.481 98.3145C168.854 98.3541 168.225 98.2585 167.637 98.0342C167.049 97.81 166.517 97.4622 166.075 97.0145C165.633 96.5668 165.293 96.0295 165.076 95.4389C164.86 94.8483 164.773 94.2181 164.821 93.591C164.751 92.9127 164.836 92.2274 165.071 91.5872C165.306 90.9469 165.683 90.3686 166.175 89.8963C166.667 89.4239 167.26 89.0699 167.909 88.8611C168.558 88.6524 169.246 88.5944 169.921 88.6916C172.647 88.8674 174.305 90.8147 174.33 93.7292Z" fill="#2E2D43"/>
<path d="M153.794 103.226C153.505 105.865 152.186 108.05 149.347 108.251C148.694 108.333 148.032 108.281 147.4 108.098C146.769 107.914 146.181 107.604 145.674 107.185C145.167 106.766 144.751 106.248 144.451 105.662C144.152 105.077 143.975 104.436 143.932 103.78C143.889 103.123 143.981 102.465 144.202 101.846C144.423 101.226 144.768 100.658 145.216 100.177C145.664 99.6957 146.206 99.3112 146.809 99.0471C147.411 98.783 148.061 98.6448 148.719 98.6411C151.483 98.4904 153.317 100.237 153.794 103.226Z" fill="#2E2D43"/>
<path d="M397.271 90.5634C396.793 93.4277 395.286 95.4377 392.396 95.3372C389.758 95.2367 387.56 93.9302 387.622 90.7518C387.685 87.5735 389.268 85.6263 392.647 85.7896C395.562 85.9404 396.944 87.8499 397.271 90.5634Z" fill="#2E2D43"/>
<path d="M367.181 105.5C364.267 105.023 362.156 103.817 362.156 100.727C362.156 97.6361 363.701 95.9527 366.691 95.8397C369.681 95.7266 371.314 97.41 371.528 100.4C371.741 103.628 369.493 104.633 367.181 105.5Z" fill="#2E2D43"/>
<path d="M341.652 94.7091C338.462 94.596 336.69 92.8247 336.627 90.0735C336.574 89.3905 336.674 88.7041 336.921 88.0651C337.168 87.4261 337.556 86.8508 338.055 86.3816C338.554 85.9125 339.152 85.5615 339.806 85.3547C340.459 85.1478 341.15 85.0904 341.828 85.1867C342.458 85.1692 343.084 85.2896 343.662 85.5393C344.24 85.789 344.756 86.1621 345.175 86.6324C345.594 87.1027 345.905 87.6588 346.086 88.2619C346.268 88.865 346.315 89.5004 346.225 90.1237C346.246 90.7305 346.142 91.335 345.92 91.9C345.698 92.465 345.362 92.9783 344.933 93.4081C344.505 93.838 343.992 94.1753 343.428 94.3991C342.864 94.6228 342.259 94.7284 341.652 94.7091Z" fill="#2E2D43"/>
<path d="M234.245 156.398V161.414H229.913V167H223.909V161.414H209.583V157.272L222.123 140.4H228.583L216.955 156.398H224.099V151.42H229.913V156.398H234.245ZM247.486 167.456C240.95 167.456 236.086 162.478 236.086 153.7C236.086 144.922 240.95 139.944 247.486 139.944C254.06 139.944 258.886 144.922 258.886 153.7C258.886 162.478 254.06 167.456 247.486 167.456ZM247.486 162.25C250.564 162.25 252.692 159.742 252.692 153.7C252.692 147.658 250.564 145.15 247.486 145.15C244.446 145.15 242.318 147.658 242.318 153.7C242.318 159.742 244.446 162.25 247.486 162.25ZM286.236 156.398V161.414H281.904V167H275.9V161.414H261.574V157.272L274.114 140.4H280.574L268.946 156.398H276.09V151.42H281.904V156.398H286.236Z" fill="white"/>
<path d="M234.244 156.398V161.414H229.912V167H223.908V161.414H209.582V157.272L222.122 140.4H228.582L216.954 156.398H224.098V151.42H229.912V156.398H234.244Z" fill="white"/>
<path d="M247.485 167.456C240.949 167.456 236.085 162.478 236.085 153.7C236.085 144.922 240.949 139.944 247.485 139.944C254.059 139.944 258.885 144.922 258.885 153.7C258.885 162.478 254.059 167.456 247.485 167.456ZM247.485 162.25C250.563 162.25 252.691 159.742 252.691 153.7C252.691 147.658 250.563 145.15 247.485 145.15C244.445 145.15 242.317 147.658 242.317 153.7C242.317 159.742 244.445 162.25 247.485 162.25Z" fill="white"/>
<path d="M286.234 156.398V161.414H281.902V167H275.898V161.414H261.572V157.272L274.112 140.4H280.572L268.944 156.398H276.088V151.42H281.902V156.398H286.234Z" fill="white"/>
</svg>
