<svg width="265" height="22" viewBox="0 0 265 22" fill="none" xmlns="http://www.w3.org/2000/svg">
<path d="M0 0.143713H9.84381C11.9982 0.100136 14.1328 0.563295 16.0754 1.49585C17.8138 2.32894 19.2762 3.64398 20.2886 5.28445C21.2733 7.02131 21.791 8.98381 21.791 10.9804C21.791 12.977 21.2733 14.9395 20.2886 16.6764C19.2762 18.3168 17.8138 19.6319 16.0754 20.4649C14.1328 21.3975 11.9982 21.8607 9.84381 21.8171H0V0.143713ZM9.5956 17.6954C11.4924 17.7926 13.3518 17.1431 14.7755 15.886C16.0153 14.5559 16.7046 12.8052 16.7046 10.9869C16.7046 9.16866 16.0153 7.418 14.7755 6.08789C13.3518 4.83074 11.4924 4.18122 9.5956 4.27851H5.02315V17.7084L9.5956 17.6954Z" fill="white"/>
<path d="M43.8896 17.7868V21.8171H27.1152V0.143677H43.4846V4.16743H32.0927V8.87705H42.1586V12.7963H32.0927V17.8064L43.8896 17.7868Z" fill="white"/>
<path d="M69.2995 0.143677V21.8171H65.1909L54.3868 8.66149V21.8171H49.4355V0.143677H53.5834L64.3548 13.2992V0.143677H69.2995Z" fill="white"/>
<path d="M80.4742 4.23275H73.5371V0.143677H92.4213V4.23275H85.4908V21.8171H80.4742V4.23275Z" fill="white"/>
<path d="M109.851 17.1728H99.8113L97.8517 21.8171H92.7109L102.424 0.143677H107.375L117.062 21.8171H111.804L109.851 17.1728ZM108.303 13.3646L104.834 5.05579L101.399 13.3515L108.303 13.3646Z" fill="white"/>
<path d="M120.836 0.143677H125.853V17.728H136.715V21.8171H120.836V0.143677Z" fill="white"/>
<path d="M152.642 20.5629C150.943 19.6456 149.528 18.2784 148.553 16.611C147.59 14.8908 147.084 12.9521 147.084 10.9804C147.084 9.00872 147.59 7.07001 148.553 5.34977C149.533 3.69441 150.947 2.33895 152.642 1.43053C154.439 0.490829 156.436 0 158.463 0C160.49 0 162.487 0.490829 164.283 1.43053C165.969 2.34425 167.376 3.69889 168.352 5.34977C169.324 7.07436 169.834 9.02046 169.834 11C169.834 12.9796 169.324 14.9256 168.352 16.6502C167.376 18.3011 165.969 19.6558 164.283 20.5695C162.487 21.5092 160.49 22 158.463 22C156.436 22 154.439 21.5092 152.642 20.5695V20.5629ZM163.094 18.7927C164.461 18.0474 165.592 16.9341 166.36 15.579C167.135 14.1703 167.542 12.5884 167.542 10.9804C167.542 9.37242 167.135 7.79054 166.36 6.38183C165.591 5.02642 164.46 3.91149 163.094 3.16153C161.661 2.40255 160.064 2.00575 158.443 2.00575C156.822 2.00575 155.225 2.40255 153.792 3.16153C152.429 3.91507 151.299 5.02914 150.526 6.38183C149.742 7.78782 149.331 9.37077 149.331 10.9804C149.331 12.5901 149.742 14.173 150.526 15.579C151.297 16.9313 152.428 18.0437 153.792 18.7927C155.223 19.5561 156.821 19.9555 158.443 19.9555C160.065 19.9555 161.662 19.5561 163.094 18.7927Z" fill="white"/>
<path d="M178.039 2.12943V10.6211H189.241V12.5807H178.039V21.7779H175.746V0.143677H190.607V2.10329L178.039 2.12943Z" fill="white"/>
<path d="M198.406 2.12943V10.6211H209.609V12.5807H198.406V21.7779H196.113V0.143677H210.974V2.10329L198.406 2.12943Z" fill="white"/>
<path d="M216.479 0.143677H218.771V21.8171H216.479V0.143677Z" fill="white"/>
<path d="M230.21 20.5759C228.524 19.666 227.121 18.3102 226.154 16.6567C225.19 14.9295 224.684 12.9844 224.684 11.0065C224.684 9.02853 225.19 7.08346 226.154 5.35626C227.123 3.69975 228.531 2.3434 230.223 1.43702C232.01 0.474876 234.013 -0.0152569 236.043 0.0130298C237.565 -0.00278837 239.077 0.269826 240.498 0.81647C241.82 1.32276 243.007 2.12753 243.966 3.16802L242.51 4.62466C241.676 3.77908 240.676 3.11467 239.573 2.67297C238.471 2.23126 237.289 2.02176 236.102 2.05757C234.469 2.03784 232.86 2.44303 231.431 3.23334C230.059 3.98615 228.918 5.09969 228.133 6.45364C227.355 7.85227 226.948 9.42597 226.948 11.0261C226.948 12.6262 227.355 14.1999 228.133 15.5985C228.925 16.9357 230.065 18.0328 231.431 18.7731C232.86 19.5634 234.469 19.9686 236.102 19.9489C237.294 19.9876 238.48 19.775 239.584 19.3248C240.688 18.8747 241.685 18.197 242.51 17.3361L243.966 18.7927C243.002 19.8369 241.811 20.6459 240.485 21.1573C238.827 21.7892 237.054 22.0624 235.283 21.9588C233.512 21.8552 231.783 21.3772 230.21 20.5564V20.5759Z" fill="white"/>
<path d="M264.953 19.8313V21.7909H249.629V0.143677H264.489V2.10329H251.922V9.81113H263.111V11.7707H251.922V19.8182L264.953 19.8313Z" fill="white"/>
</svg>
