<svg width="266" height="22" viewBox="0 0 266 22" fill="none" xmlns="http://www.w3.org/2000/svg">
<path d="M0.523438 0.143713H10.3672C12.5217 0.100136 14.6562 0.563295 16.5988 1.49585C18.3372 2.32894 19.7996 3.64398 20.812 5.28445C21.7968 7.02131 22.3144 8.98381 22.3144 10.9804C22.3144 12.977 21.7968 14.9395 20.812 16.6764C19.7996 18.3168 18.3372 19.6319 16.5988 20.4649C14.6562 21.3975 12.5217 21.8607 10.3672 21.8171H0.523438V0.143713ZM10.119 17.6954C12.0158 17.7926 13.8753 17.1431 15.299 15.886C16.5387 14.5559 17.228 12.8052 17.228 10.9869C17.228 9.16866 16.5387 7.418 15.299 6.08789C13.8753 4.83074 12.0158 4.18122 10.119 4.27851H5.54659V17.7084L10.119 17.6954Z" fill="#1D1D1D"/>
<path d="M44.4149 17.7868V21.8171H27.6406V0.143677H44.01V4.16743H32.6181V8.87705H42.684V12.7963H32.6181V17.8064L44.4149 17.7868Z" fill="#1D1D1D"/>
<path d="M69.8249 0.143677V21.8171H65.7163L54.9122 8.66149V21.8171H49.9609V0.143677H54.1088L64.8802 13.2992V0.143677H69.8249Z" fill="#1D1D1D"/>
<path d="M80.9995 4.23275H74.0625V0.143677H92.9467V4.23275H86.0162V21.8171H80.9995V4.23275Z" fill="#1D1D1D"/>
<path d="M110.374 17.1728H100.335L98.3751 21.8171H93.2344L102.948 0.143677H107.899L117.586 21.8171H112.328L110.374 17.1728ZM108.826 13.3646L105.358 5.05579L101.922 13.3515L108.826 13.3646Z" fill="#1D1D1D"/>
<path d="M121.359 0.143677H126.376V17.728H137.239V21.8171H121.359V0.143677Z" fill="#1D1D1D"/>
<path d="M153.164 20.5629C151.464 19.6456 150.05 18.2784 149.075 16.611C148.111 14.8908 147.605 12.9521 147.605 10.9804C147.605 9.00872 148.111 7.07001 149.075 5.34977C150.054 3.69441 151.469 2.33895 153.164 1.43053C154.96 0.490829 156.957 0 158.984 0C161.011 0 163.008 0.490829 164.804 1.43053C166.491 2.34425 167.897 3.69889 168.874 5.34977C169.845 7.07436 170.356 9.02046 170.356 11C170.356 12.9796 169.845 14.9256 168.874 16.6502C167.897 18.3011 166.491 19.6558 164.804 20.5695C163.008 21.5092 161.011 22 158.984 22C156.957 22 154.96 21.5092 153.164 20.5695V20.5629ZM163.615 18.7927C164.983 18.0474 166.114 16.9341 166.881 15.579C167.657 14.1703 168.063 12.5884 168.063 10.9804C168.063 9.37242 167.657 7.79054 166.881 6.38183C166.112 5.02642 164.981 3.91149 163.615 3.16153C162.183 2.40255 160.586 2.00575 158.964 2.00575C157.343 2.00575 155.746 2.40255 154.314 3.16153C152.95 3.91507 151.82 5.02914 151.048 6.38183C150.264 7.78782 149.853 9.37077 149.853 10.9804C149.853 12.5901 150.264 14.173 151.048 15.579C151.819 16.9313 152.949 18.0437 154.314 18.7927C155.745 19.5561 157.342 19.9555 158.964 19.9555C160.587 19.9555 162.184 19.5561 163.615 18.7927Z" fill="#1D1D1D"/>
<path d="M178.562 2.12943V10.6211H189.765V12.5807H178.562V21.7779H176.27V0.143677H191.13V2.10329L178.562 2.12943Z" fill="#1D1D1D"/>
<path d="M198.929 2.12943V10.6211H210.132V12.5807H198.929V21.7779H196.637V0.143677H211.497V2.10329L198.929 2.12943Z" fill="#1D1D1D"/>
<path d="M217.004 0.143677H219.297V21.8171H217.004V0.143677Z" fill="#1D1D1D"/>
<path d="M230.733 20.576C229.048 19.666 227.644 18.3102 226.677 16.6567C225.713 14.9295 225.207 12.9844 225.207 11.0065C225.207 9.02853 225.713 7.08346 226.677 5.35626C227.646 3.69975 229.055 2.3434 230.746 1.43702C232.534 0.474876 234.537 -0.0152569 236.566 0.0130298C238.089 -0.00278837 239.6 0.269826 241.021 0.81647C242.343 1.32276 243.53 2.12753 244.49 3.16802L243.033 4.62466C242.199 3.77908 241.2 3.11467 240.097 2.67297C238.994 2.23126 237.813 2.02176 236.625 2.05757C234.993 2.03784 233.383 2.44303 231.955 3.23334C230.582 3.98615 229.442 5.09969 228.656 6.45364C227.879 7.85227 227.471 9.42597 227.471 11.0261C227.471 12.6262 227.879 14.1999 228.656 15.5985C229.448 16.9357 230.588 18.0328 231.955 18.7731C233.383 19.5634 234.993 19.9686 236.625 19.9489C237.817 19.9876 239.003 19.775 240.107 19.3248C241.212 18.8747 242.208 18.197 243.033 17.3361L244.49 18.7927C243.526 19.8369 242.334 20.6459 241.008 21.1573C239.35 21.7892 237.578 22.0624 235.806 21.9588C234.035 21.8552 232.306 21.3772 230.733 20.5564V20.576Z" fill="#1D1D1D"/>
<path d="M265.477 19.8313V21.7909H250.152V0.143677H265.013V2.10329H252.445V9.81113H263.635V11.7707H252.445V19.8182L265.477 19.8313Z" fill="#1D1D1D"/>
</svg>
